ISO-10303-21;
HEADER;
FILE_DESCRIPTION (( 'STEP AP214' ),
    '1' );
FILE_NAME ('C266430_220_inductor.STEP',
    '2023-01-05T10:45:27',
    ( '' ),
    ( '' ),
    'SwSTEP 2.0',
    'SolidWorks 2016',
    '' );
FILE_SCHEMA (( 'AUTOMOTIVE_DESIGN' ));
ENDSEC;

DATA;
#1 = DIRECTION ( 'NONE',  ( 1.000000000000000000, 0.0000000000000000000, -1.445602896647339400E-016 ) ) ;
#2 = CARTESIAN_POINT ( 'NONE',  ( 1.824903881562534000, -1.050000000000000000, -3.256524563752805100 ) ) ;
#3 = EDGE_CURVE ( 'NONE', #691, #170, #771, .T. ) ;
#4 = CARTESIAN_POINT ( 'NONE',  ( -1.824903881562534000, -1.350000000000000100, -3.256524563752805100 ) ) ;
#5 = LINE ( 'NONE', #863, #767 ) ;
#6 = CARTESIAN_POINT ( 'NONE',  ( -3.000000000000000000, 1.000000000000000000, 2.499999999999998200 ) ) ;
#7 = LINE ( 'NONE', #554, #1067 ) ;
#8 = LINE ( 'NONE', #297, #1052 ) ;
#9 = EDGE_LOOP ( 'NONE', ( #538, #294, #934, #58 ) ) ;
#10 = ORIENTED_EDGE ( 'NONE', *, *, #45, .T. ) ;
#11 = CARTESIAN_POINT ( 'NONE',  ( 2.499999999999999600, -1.350000000000000100, 2.499999999999999600 ) ) ;
#12 = CARTESIAN_POINT ( 'NONE',  ( -1.824903881562534000, -1.050000000000000000, -3.256524563752805100 ) ) ;
#13 = CARTESIAN_POINT ( 'NONE',  ( -3.000000000000000000, -1.350000000000000100, 2.999999999999999600 ) ) ;
#14 = CARTESIAN_POINT ( 'NONE',  ( 3.000000000000000000, 1.350000000000000100, 2.499999999999999100 ) ) ;
#15 = CARTESIAN_POINT ( 'NONE',  ( -3.000000000000000900, 1.350000000000000100, -3.000000000000000400 ) ) ;
#16 = DIRECTION ( 'NONE',  ( 1.000000000000000000, 0.0000000000000000000, 0.0000000000000000000 ) ) ;
#17 = DIRECTION ( 'NONE',  ( 0.0000000000000000000, -1.000000000000000000, 0.0000000000000000000 ) ) ;
#18 = PRESENTATION_LAYER_ASSIGNMENT (  '', '', ( #1089 ) ) ;
#19 = COLOUR_RGB ( '',0.7921568627450980000, 0.8196078431372548800, 0.9333333333333333500 ) ;
#20 = CARTESIAN_POINT ( 'NONE',  ( 2.999999999999999100, -1.000000000000000000, -2.500000000000000400 ) ) ;
#21 = CIRCLE ( 'NONE', #995, 0.5000000000000000000 ) ;
#22 = FACE_OUTER_BOUND ( 'NONE', #770, .T. ) ;
#23 = CARTESIAN_POINT ( 'NONE',  ( 1.824903881562534000, -1.050000000000000000, 3.256524563752805100 ) ) ;
#24 = EDGE_LOOP ( 'NONE', ( #378, #982, #615, #68 ) ) ;
#25 = VECTOR ( 'NONE', #976, 1000.000000000000000 ) ;
#26 = CARTESIAN_POINT ( 'NONE',  ( 1.824903881562534000, -1.350000000000000100, 2.999999999999999600 ) ) ;
#27 = ORIENTED_EDGE ( 'NONE', *, *, #1055, .T. ) ;
#28 = ORIENTED_EDGE ( 'NONE', *, *, #89, .F. ) ;
#29 = EDGE_CURVE ( 'NONE', #512, #595, #494, .T. ) ;
#30 = DIRECTION ( 'NONE',  ( -0.0000000000000000000, -1.000000000000000000, -0.0000000000000000000 ) ) ;
#31 = CARTESIAN_POINT ( 'NONE',  ( -2.500000000000000000, -1.350000000000000100, 2.499999999999998200 ) ) ;
#32 = AXIS2_PLACEMENT_3D ( 'NONE', #658, #910, #545 ) ;
#33 = DIRECTION ( 'NONE',  ( -1.000000000000000000, -0.0000000000000000000, -0.0000000000000000000 ) ) ;
#34 = CARTESIAN_POINT ( 'NONE',  ( -3.000000000000000000, 1.350000000000000100, 2.499999999999998200 ) ) ;
#35 = DIRECTION ( 'NONE',  ( 1.000000000000000000, 0.0000000000000000000, 0.0000000000000000000 ) ) ;
#36 = EDGE_CURVE ( 'NONE', #793, #968, #456, .T. ) ;
#37 = AXIS2_PLACEMENT_3D ( 'NONE', #821, #35, #128 ) ;
#38 = DIRECTION ( 'NONE',  ( 0.0000000000000000000, -1.000000000000000000, 0.0000000000000000000 ) ) ;
#39 = CIRCLE ( 'NONE', #1093, 0.5000000000000000000 ) ;
#40 = DIRECTION ( 'NONE',  ( 0.0000000000000000000, 0.0000000000000000000, 1.000000000000000000 ) ) ;
#41 = VERTEX_POINT ( 'NONE', #20 ) ;
#42 = VERTEX_POINT ( 'NONE', #911 ) ;
#43 = APPLICATION_CONTEXT ( 'automotive_design' ) ;
#44 = DIRECTION ( 'NONE',  ( 0.0000000000000000000, -1.000000000000000000, 0.0000000000000000000 ) ) ;
#45 = EDGE_CURVE ( 'NONE', #67, #900, #1086, .T. ) ;
#46 = DIRECTION ( 'NONE',  ( 1.445602896647339400E-016, 0.0000000000000000000, 1.000000000000000000 ) ) ;
#47 =( NAMED_UNIT ( * ) SI_UNIT ( $, .STERADIAN. ) SOLID_ANGLE_UNIT ( ) );
#48 = DIRECTION ( 'NONE',  ( 0.0000000000000000000, 0.0000000000000000000, 1.000000000000000000 ) ) ;
#49 = EDGE_CURVE ( 'NONE', #41, #53, #394, .T. ) ;
#50 = VECTOR ( 'NONE', #717, 1000.000000000000000 ) ;
#51 = FACE_OUTER_BOUND ( 'NONE', #146, .T. ) ;
#52 = DIRECTION ( 'NONE',  ( -1.000000000000000000, 0.0000000000000000000, 0.0000000000000000000 ) ) ;
#53 = VERTEX_POINT ( 'NONE', #744 ) ;
#54 = VECTOR ( 'NONE', #650, 1000.000000000000000 ) ;
#55 = ORIENTED_EDGE ( 'NONE', *, *, #1107, .F. ) ;
#56 = ORIENTED_EDGE ( 'NONE', *, *, #238, .T. ) ;
#57 = ORIENTED_EDGE ( 'NONE', *, *, #338, .T. ) ;
#58 = ORIENTED_EDGE ( 'NONE', *, *, #338, .F. ) ;
#59 = EDGE_CURVE ( 'NONE', #222, #526, #734, .T. ) ;
#60 =( GEOMETRIC_REPRESENTATION_CONTEXT ( 3 ) GLOBAL_UNCERTAINTY_ASSIGNED_CONTEXT ( ( #675 ) ) GLOBAL_UNIT_ASSIGNED_CONTEXT ( ( #616, #427, #76 ) ) REPRESENTATION_CONTEXT ( 'NONE', 'WORKASPACE' ) );
#61 = CARTESIAN_POINT ( 'NONE',  ( -3.000000000000000900, 1.000000000000000000, -2.500000000000000400 ) ) ;
#62 = VECTOR ( 'NONE', #602, 1000.000000000000000 ) ;
#63 = CYLINDRICAL_SURFACE ( 'NONE', #205, 0.5000000000000000000 ) ;
#64 = EDGE_CURVE ( 'NONE', #978, #426, #1069, .T. ) ;
#65 = VECTOR ( 'NONE', #919, 1000.000000000000000 ) ;
#66 = ORIENTED_EDGE ( 'NONE', *, *, #579, .T. ) ;
#67 = VERTEX_POINT ( 'NONE', #1058 ) ;
#68 = ORIENTED_EDGE ( 'NONE', *, *, #592, .F. ) ;
#69 = DIRECTION ( 'NONE',  ( 0.0000000000000000000, 1.000000000000000000, 0.0000000000000000000 ) ) ;
#70 = EDGE_CURVE ( 'NONE', #448, #406, #158, .T. ) ;
#71 = CARTESIAN_POINT ( 'NONE',  ( 2.499999999999998700, -1.350000000000000100, -3.000000000000000400 ) ) ;
#72 = SURFACE_STYLE_FILL_AREA ( #337 ) ;
#73 = CIRCLE ( 'NONE', #736, 0.5000000000000000000 ) ;
#74 = VECTOR ( 'NONE', #417, 1000.000000000000000 ) ;
#75 = ORIENTED_EDGE ( 'NONE', *, *, #560, .T. ) ;
#76 =( NAMED_UNIT ( * ) SI_UNIT ( $, .STERADIAN. ) SOLID_ANGLE_UNIT ( ) );
#77 = ORIENTED_EDGE ( 'NONE', *, *, #945, .F. ) ;
#78 = DIRECTION ( 'NONE',  ( 1.000000000000000000, 0.0000000000000000000, -7.885106708985487800E-017 ) ) ;
#79 = ORIENTED_EDGE ( 'NONE', *, *, #150, .T. ) ;
#80 = CARTESIAN_POINT ( 'NONE',  ( -2.750000000000000900, 1.000000000000000000, -2.750000000000000000 ) ) ;
#81 = ORIENTED_EDGE ( 'NONE', *, *, #1047, .F. ) ;
#82 = EDGE_CURVE ( 'NONE', #904, #703, #145, .T. ) ;
#83 = FILL_AREA_STYLE ('',( #611 ) ) ;
#84 = DIRECTION ( 'NONE',  ( 0.0000000000000000000, -1.000000000000000000, 0.0000000000000000000 ) ) ;
#85 = PRESENTATION_STYLE_ASSIGNMENT (( #507 ) ) ;
#86 = SURFACE_STYLE_FILL_AREA ( #665 ) ;
#87 = DIRECTION ( 'NONE',  ( -7.885106708985487800E-017, -0.0000000000000000000, -1.000000000000000000 ) ) ;
#88 = LINE ( 'NONE', #124, #260 ) ;
#89 = EDGE_CURVE ( 'NONE', #587, #873, #171, .T. ) ;
#90 = VERTEX_POINT ( 'NONE', #983 ) ;
#91 = ORIENTED_EDGE ( 'NONE', *, *, #225, .F. ) ;
#92 = DIRECTION ( 'NONE',  ( 0.0000000000000000000, 1.000000000000000000, 0.0000000000000000000 ) ) ;
#93 = VERTEX_POINT ( 'NONE', #26 ) ;
#94 = AXIS2_PLACEMENT_3D ( 'NONE', #601, #167, #242 ) ;
#95 = ORIENTED_EDGE ( 'NONE', *, *, #991, .T. ) ;
#96 = DIRECTION ( 'NONE',  ( 0.0000000000000000000, -0.0000000000000000000, -1.000000000000000000 ) ) ;
#97 = EDGE_CURVE ( 'NONE', #90, #748, #357, .T. ) ;
#98 = LINE ( 'NONE', #265, #1009 ) ;
#99 = CARTESIAN_POINT ( 'NONE',  ( 2.999999999999999100, -1.350000000000000100, -2.500000000000000400 ) ) ;
#100 = DIRECTION ( 'NONE',  ( 0.0000000000000000000, 0.0000000000000000000, 1.000000000000000000 ) ) ;
#101 = ORIENTED_EDGE ( 'NONE', *, *, #851, .F. ) ;
#102 = EDGE_CURVE ( 'NONE', #345, #320, #135, .T. ) ;
#103 = VERTEX_POINT ( 'NONE', #99 ) ;
#104 = DIRECTION ( 'NONE',  ( -0.0000000000000000000, -1.000000000000000000, -0.0000000000000000000 ) ) ;
#105 = DIRECTION ( 'NONE',  ( 0.0000000000000000000, 0.0000000000000000000, 1.000000000000000000 ) ) ;
#106 =( LENGTH_UNIT ( ) NAMED_UNIT ( * ) SI_UNIT ( .MILLI., .METRE. ) );
#107 = CARTESIAN_POINT ( 'NONE',  ( 2.499999999999999100, -1.350000000000000100, -2.500000000000000400 ) ) ;
#108 = ADVANCED_FACE ( 'NONE', ( #1040 ), #269, .T. ) ;
#109 =( GEOMETRIC_REPRESENTATION_CONTEXT ( 3 ) GLOBAL_UNCERTAINTY_ASSIGNED_CONTEXT ( ( #877 ) ) GLOBAL_UNIT_ASSIGNED_CONTEXT ( ( #871, #1120, #430 ) ) REPRESENTATION_CONTEXT ( 'NONE', 'WORKASPACE' ) );
#110 = DIRECTION ( 'NONE',  ( -0.0000000000000000000, -1.000000000000000000, -0.0000000000000000000 ) ) ;
#111 = CARTESIAN_POINT ( 'NONE',  ( -2.500000000000000900, -1.350000000000000100, -2.500000000000000400 ) ) ;
#112 = LINE ( 'NONE', #903, #1064 ) ;
#113 = SURFACE_SIDE_STYLE ('',( #86 ) ) ;
#114 = LINE ( 'NONE', #246, #608 ) ;
#115 = DIRECTION ( 'NONE',  ( -1.445602896647339400E-016, 0.0000000000000000000, -1.000000000000000000 ) ) ;
#116 = FACE_OUTER_BOUND ( 'NONE', #9, .T. ) ;
#117 = DIRECTION ( 'NONE',  ( 0.0000000000000000000, 1.000000000000000000, 0.0000000000000000000 ) ) ;
#118 = ORIENTED_EDGE ( 'NONE', *, *, #939, .F. ) ;
#119 = VERTEX_POINT ( 'NONE', #201 ) ;
#120 = PRODUCT ( 'C266430_220_inductor', 'C266430_220_inductor', '', ( #495 ) ) ;
#121 = VERTEX_POINT ( 'NONE', #843 ) ;
#122 = EDGE_LOOP ( 'NONE', ( #935, #77, #27, #1105 ) ) ;
#123 = EDGE_CURVE ( 'NONE', #53, #346, #649, .T. ) ;
#124 = CARTESIAN_POINT ( 'NONE',  ( -3.000000000000000900, 1.000000000000000000, -3.000000000000000400 ) ) ;
#125 = DIRECTION ( 'NONE',  ( 1.000000000000000000, 0.0000000000000000000, 0.0000000000000000000 ) ) ;
#126 = DIRECTION ( 'NONE',  ( 0.0000000000000000000, -1.000000000000000000, 0.0000000000000000000 ) ) ;
#127 = CARTESIAN_POINT ( 'NONE',  ( -3.000000000000000000, -1.350000000000000100, 2.999999999999999600 ) ) ;
#128 = DIRECTION ( 'NONE',  ( 0.0000000000000000000, 0.0000000000000000000, -1.000000000000000000 ) ) ;
#129 = EDGE_CURVE ( 'NONE', #822, #671, #343, .T. ) ;
#130 = ADVANCED_FACE ( 'NONE', ( #376 ), #308, .T. ) ;
#131 = FACE_OUTER_BOUND ( 'NONE', #849, .T. ) ;
#132 = CARTESIAN_POINT ( 'NONE',  ( 2.749999999999999600, 1.000000000000000000, 2.750000000000000000 ) ) ;
#133 = SURFACE_STYLE_FILL_AREA ( #204 ) ;
#134 = ORIENTED_EDGE ( 'NONE', *, *, #1114, .T. ) ;
#135 = LINE ( 'NONE', #368, #808 ) ;
#136 = CARTESIAN_POINT ( 'NONE',  ( 2.499999999999998700, 1.350000000000000100, -3.000000000000000400 ) ) ;
#137 = PRESENTATION_LAYER_ASSIGNMENT (  '', '', ( #1117 ) ) ;
#138 = DIRECTION ( 'NONE',  ( 0.0000000000000000000, 0.0000000000000000000, 1.000000000000000000 ) ) ;
#139 = CARTESIAN_POINT ( 'NONE',  ( 2.999999999999999100, -1.350000000000000100, -2.500000000000000400 ) ) ;
#140 = CARTESIAN_POINT ( 'NONE',  ( -3.000000000000000900, -1.350000000000000100, -3.000000000000000400 ) ) ;
#141 = SHAPE_DEFINITION_REPRESENTATION ( #279, #578 ) ;
#142 = AXIS2_PLACEMENT_3D ( 'NONE', #769, #681, #228 ) ;
#143 = VECTOR ( 'NONE', #17, 1000.000000000000000 ) ;
#144 = ORIENTED_EDGE ( 'NONE', *, *, #1011, .T. ) ;
#145 = LINE ( 'NONE', #633, #25 ) ;
#146 = EDGE_LOOP ( 'NONE', ( #234, #751, #56, #706 ) ) ;
#147 = EDGE_LOOP ( 'NONE', ( #695, #796, #836, #28, #576, #629, #772, #735 ) ) ;
#148 = DIRECTION ( 'NONE',  ( 1.000000000000000000, 0.0000000000000000000, -1.445602896647339400E-016 ) ) ;
#149 = ORIENTED_EDGE ( 'NONE', *, *, #894, .T. ) ;
#150 = EDGE_CURVE ( 'NONE', #217, #774, #415, .T. ) ;
#151 = AXIS2_PLACEMENT_3D ( 'NONE', #11, #630, #529 ) ;
#152 = VECTOR ( 'NONE', #125, 1000.000000000000000 ) ;
#153 = CARTESIAN_POINT ( 'NONE',  ( -2.750000000000000900, -1.000000000000000000, -2.750000000000000000 ) ) ;
#154 = MECHANICAL_DESIGN_GEOMETRIC_PRESENTATION_REPRESENTATION (  '', ( #845 ), #109 ) ;
#155 = LINE ( 'NONE', #326, #718 ) ;
#156 = ORIENTED_EDGE ( 'NONE', *, *, #1018, .F. ) ;
#157 = PLANE ( 'NONE',  #94 ) ;
#158 = LINE ( 'NONE', #730, #837 ) ;
#159 = ORIENTED_EDGE ( 'NONE', *, *, #29, .T. ) ;
#160 = EDGE_CURVE ( 'NONE', #762, #90, #503, .T. ) ;
#161 = MECHANICAL_DESIGN_GEOMETRIC_PRESENTATION_REPRESENTATION (  '', ( #986 ), #254 ) ;
#162 = UNCERTAINTY_MEASURE_WITH_UNIT (LENGTH_MEASURE( 1.000000000000000100E-005 ), #465, 'distance_accuracy_value', 'NONE');
#163 = DIRECTION ( 'NONE',  ( -7.885106708985487800E-017, 0.0000000000000000000, -1.000000000000000000 ) ) ;
#164 = CARTESIAN_POINT ( 'NONE',  ( 2.499999999999999600, 1.000000000000000000, 2.499999999999999600 ) ) ;
#165 = VECTOR ( 'NONE', #563, 1000.000000000000000 ) ;
#166 = CYLINDRICAL_SURFACE ( 'NONE', #440, 0.5000000000000000000 ) ;
#167 = DIRECTION ( 'NONE',  ( 0.0000000000000000000, 1.000000000000000000, 0.0000000000000000000 ) ) ;
#168 = FACE_OUTER_BOUND ( 'NONE', #147, .T. ) ;
#169 = AXIS2_PLACEMENT_3D ( 'NONE', #1054, #883, #723 ) ;
#170 = VERTEX_POINT ( 'NONE', #132 ) ;
#171 = CIRCLE ( 'NONE', #412, 0.5000000000000000000 ) ;
#172 = ORIENTED_EDGE ( 'NONE', *, *, #1018, .T. ) ;
#173 = ORIENTED_EDGE ( 'NONE', *, *, #621, .T. ) ;
#174 =( NAMED_UNIT ( * ) SI_UNIT ( $, .STERADIAN. ) SOLID_ANGLE_UNIT ( ) );
#175 = CARTESIAN_POINT ( 'NONE',  ( 2.749999999999999600, -1.000000000000000000, 2.750000000000000000 ) ) ;
#176 = EDGE_CURVE ( 'NONE', #405, #848, #8, .T. ) ;
#177 = DIRECTION ( 'NONE',  ( -0.0000000000000000000, -0.0000000000000000000, 1.000000000000000000 ) ) ;
#178 = DIRECTION ( 'NONE',  ( 0.0000000000000000000, 0.0000000000000000000, 1.000000000000000000 ) ) ;
#179 = DIRECTION ( 'NONE',  ( 0.0000000000000000000, 1.000000000000000000, 0.0000000000000000000 ) ) ;
#180 = VECTOR ( 'NONE', #384, 1000.000000000000000 ) ;
#181 = EDGE_CURVE ( 'NONE', #999, #652, #572, .T. ) ;
#182 = LINE ( 'NONE', #139, #477 ) ;
#183 = ORIENTED_EDGE ( 'NONE', *, *, #36, .T. ) ;
#184 = DIRECTION ( 'NONE',  ( 0.0000000000000000000, 0.0000000000000000000, -1.000000000000000000 ) ) ;
#185 = DIRECTION ( 'NONE',  ( -1.445602896647339200E-016, -0.0000000000000000000, -1.000000000000000000 ) ) ;
#186 = DIRECTION ( 'NONE',  ( -1.000000000000000000, 0.0000000000000000000, -0.0000000000000000000 ) ) ;
#187 = AXIS2_PLACEMENT_3D ( 'NONE', #483, #565, #819 ) ;
#188 = CARTESIAN_POINT ( 'NONE',  ( -2.750000000000000900, 1.000000000000000000, -2.750000000000000000 ) ) ;
#189 = PRESENTATION_STYLE_ASSIGNMENT (( #571 ) ) ;
#190 = VECTOR ( 'NONE', #84, 1000.000000000000000 ) ;
#191 =( NAMED_UNIT ( * ) PLANE_ANGLE_UNIT ( ) SI_UNIT ( $, .RADIAN. ) );
#192 = ADVANCED_FACE ( 'NONE', ( #969 ), #312, .F. ) ;
#193 = VECTOR ( 'NONE', #350, 1000.000000000000000 ) ;
#194 = ORIENTED_EDGE ( 'NONE', *, *, #1107, .T. ) ;
#195 = AXIS2_PLACEMENT_3D ( 'NONE', #317, #69, #236 ) ;
#196 = CARTESIAN_POINT ( 'NONE',  ( 2.999999999999999100, -1.350000000000000100, -3.000000000000000400 ) ) ;
#197 = ORIENTED_EDGE ( 'NONE', *, *, #82, .T. ) ;
#198 = ORIENTED_EDGE ( 'NONE', *, *, #939, .T. ) ;
#199 = DIRECTION ( 'NONE',  ( 1.000000000000000000, 0.0000000000000000000, 0.0000000000000000000 ) ) ;
#200 = VERTEX_POINT ( 'NONE', #482 ) ;
#201 = CARTESIAN_POINT ( 'NONE',  ( -2.750000000000000400, -1.000000000000000000, 2.750000000000000000 ) ) ;
#202 = DIRECTION ( 'NONE',  ( 0.0000000000000000000, 0.0000000000000000000, 1.000000000000000000 ) ) ;
#203 = CARTESIAN_POINT ( 'NONE',  ( 1.824903881562534000, -1.350000000000000100, -3.000000000000000400 ) ) ;
#204 = FILL_AREA_STYLE ('',( #562 ) ) ;
#205 = AXIS2_PLACEMENT_3D ( 'NONE', #385, #909, #105 ) ;
#206 = ADVANCED_FACE ( 'NONE', ( #1113 ), #835, .T. ) ;
#207 = VECTOR ( 'NONE', #199, 1000.000000000000000 ) ;
#208 = VECTOR ( 'NONE', #177, 1000.000000000000000 ) ;
#209 =( NAMED_UNIT ( * ) SI_UNIT ( $, .STERADIAN. ) SOLID_ANGLE_UNIT ( ) );
#210 = VECTOR ( 'NONE', #799, 1000.000000000000000 ) ;
#211 = FACE_OUTER_BOUND ( 'NONE', #971, .T. ) ;
#212 = DIRECTION ( 'NONE',  ( 0.0000000000000000000, -0.0000000000000000000, -1.000000000000000000 ) ) ;
#213 = ORIENTED_EDGE ( 'NONE', *, *, #45, .F. ) ;
#214 = ORIENTED_EDGE ( 'NONE', *, *, #437, .T. ) ;
#215 = ADVANCED_FACE ( 'NONE', ( #403 ), #486, .T. ) ;
#216 = AXIS2_PLACEMENT_3D ( 'NONE', #953, #78, #163 ) ;
#217 = VERTEX_POINT ( 'NONE', #832 ) ;
#218 = DIRECTION ( 'NONE',  ( 0.0000000000000000000, -0.0000000000000000000, 1.000000000000000000 ) ) ;
#219 = VECTOR ( 'NONE', #432, 1000.000000000000000 ) ;
#220 = DIRECTION ( 'NONE',  ( 0.0000000000000000000, 1.000000000000000000, 0.0000000000000000000 ) ) ;
#221 = FACE_OUTER_BOUND ( 'NONE', #1039, .T. ) ;
#222 = VERTEX_POINT ( 'NONE', #136 ) ;
#223 = ORIENTED_EDGE ( 'NONE', *, *, #129, .F. ) ;
#224 = ORIENTED_EDGE ( 'NONE', *, *, #314, .T. ) ;
#225 = EDGE_CURVE ( 'NONE', #968, #901, #646, .T. ) ;
#226 = AXIS2_PLACEMENT_3D ( 'NONE', #107, #623, #100 ) ;
#227 = CARTESIAN_POINT ( 'NONE',  ( 2.999999999999999600, 1.000000000000000000, 2.499999999999999100 ) ) ;
#228 = DIRECTION ( 'NONE',  ( 0.0000000000000000000, 0.0000000000000000000, 1.000000000000000000 ) ) ;
#229 = CARTESIAN_POINT ( 'NONE',  ( -1.824903881562534000, -1.350000000000000100, 3.256524563752805100 ) ) ;
#230 = EDGE_CURVE ( 'NONE', #346, #587, #749, .T. ) ;
#231 = CARTESIAN_POINT ( 'NONE',  ( -3.000000000000000000, -1.050000000000000000, 2.999999999999999600 ) ) ;
#232 = VECTOR ( 'NONE', #389, 1000.000000000000000 ) ;
#233 = ORIENTED_EDGE ( 'NONE', *, *, #670, .F. ) ;
#234 = ORIENTED_EDGE ( 'NONE', *, *, #1011, .F. ) ;
#235 = ORIENTED_EDGE ( 'NONE', *, *, #474, .F. ) ;
#236 = DIRECTION ( 'NONE',  ( 0.0000000000000000000, -0.0000000000000000000, 1.000000000000000000 ) ) ;
#237 = EDGE_LOOP ( 'NONE', ( #1104, #496, #585, #765 ) ) ;
#238 = EDGE_CURVE ( 'NONE', #1034, #901, #805, .T. ) ;
#239 = PLANE ( 'NONE',  #240 ) ;
#240 = AXIS2_PLACEMENT_3D ( 'NONE', #866, #1, #243 ) ;
#241 = VECTOR ( 'NONE', #640, 1000.000000000000000 ) ;
#242 = DIRECTION ( 'NONE',  ( 0.0000000000000000000, -0.0000000000000000000, 1.000000000000000000 ) ) ;
#243 = DIRECTION ( 'NONE',  ( -1.445602896647339400E-016, 0.0000000000000000000, -1.000000000000000000 ) ) ;
#244 = LINE ( 'NONE', #285, #165 ) ;
#245 = PRESENTATION_LAYER_ASSIGNMENT (  '', '', ( #328 ) ) ;
#246 = CARTESIAN_POINT ( 'NONE',  ( -3.000000000000000900, -1.350000000000000100, -2.500000000000000400 ) ) ;
#247 = SURFACE_STYLE_FILL_AREA ( #83 ) ;
#248 = ORIENTED_EDGE ( 'NONE', *, *, #301, .T. ) ;
#249 = PLANE ( 'NONE',  #1044 ) ;
#250 = VECTOR ( 'NONE', #33, 1000.000000000000000 ) ;
#251 = EDGE_LOOP ( 'NONE', ( #885, #10, #1099, #478 ) ) ;
#252 = EDGE_LOOP ( 'NONE', ( #510, #737, #446, #722 ) ) ;
#253 = EDGE_CURVE ( 'NONE', #790, #311, #896, .T. ) ;
#254 =( GEOMETRIC_REPRESENTATION_CONTEXT ( 3 ) GLOBAL_UNCERTAINTY_ASSIGNED_CONTEXT ( ( #435 ) ) GLOBAL_UNIT_ASSIGNED_CONTEXT ( ( #937, #673, #766 ) ) REPRESENTATION_CONTEXT ( 'NONE', 'WORKASPACE' ) );
#255 = DIRECTION ( 'NONE',  ( 0.0000000000000000000, 0.0000000000000000000, -1.000000000000000000 ) ) ;
#256 = DIRECTION ( 'NONE',  ( 0.0000000000000000000, 1.000000000000000000, -0.0000000000000000000 ) ) ;
#257 = EDGE_CURVE ( 'NONE', #103, #41, #182, .T. ) ;
#258 = VECTOR ( 'NONE', #87, 1000.000000000000000 ) ;
#259 = DIRECTION ( 'NONE',  ( 0.0000000000000000000, 1.000000000000000000, 0.0000000000000000000 ) ) ;
#260 = VECTOR ( 'NONE', #115, 1000.000000000000000 ) ;
#261 = PRESENTATION_LAYER_ASSIGNMENT (  '', '', ( #845 ) ) ;
#262 = FACE_OUTER_BOUND ( 'NONE', #252, .T. ) ;
#263 = VERTEX_POINT ( 'NONE', #941 ) ;
#264 = EDGE_LOOP ( 'NONE', ( #539, #610, #683, #886 ) ) ;
#265 = CARTESIAN_POINT ( 'NONE',  ( -1.824903881562534000, -1.350000000000000100, 3.256524563752805100 ) ) ;
#266 = CARTESIAN_POINT ( 'NONE',  ( 0.0000000000000000000, -1.050000000000000000, 0.0000000000000000000 ) ) ;
#267 = DIRECTION ( 'NONE',  ( 1.000000000000000000, 0.0000000000000000000, -0.0000000000000000000 ) ) ;
#268 = LINE ( 'NONE', #892, #1109 ) ;
#269 = PLANE ( 'NONE',  #685 ) ;
#270 = CYLINDRICAL_SURFACE ( 'NONE', #151, 0.5000000000000000000 ) ;
#271 = CARTESIAN_POINT ( 'NONE',  ( -2.500000000000000900, -1.350000000000000100, -3.000000000000000400 ) ) ;
#272 = ORIENTED_EDGE ( 'NONE', *, *, #958, .T. ) ;
#273 =( GEOMETRIC_REPRESENTATION_CONTEXT ( 3 ) GLOBAL_UNCERTAINTY_ASSIGNED_CONTEXT ( ( #590 ) ) GLOBAL_UNIT_ASSIGNED_CONTEXT ( ( #106, #395, #388 ) ) REPRESENTATION_CONTEXT ( 'NONE', 'WORKASPACE' ) );
#274 = VECTOR ( 'NONE', #542, 1000.000000000000000 ) ;
#275 = DIRECTION ( 'NONE',  ( 0.0000000000000000000, 0.0000000000000000000, 1.000000000000000000 ) ) ;
#276 = ORIENTED_EDGE ( 'NONE', *, *, #431, .F. ) ;
#277 = ORIENTED_EDGE ( 'NONE', *, *, #3, .F. ) ;
#278 = ADVANCED_FACE ( 'NONE', ( #262 ), #581, .T. ) ;
#279 = PRODUCT_DEFINITION_SHAPE ( 'NONE', 'NONE',  #1057 ) ;
#280 = CARTESIAN_POINT ( 'NONE',  ( -1.824903881562534000, -1.050000000000000000, 3.256524563752805100 ) ) ;
#281 = CARTESIAN_POINT ( 'NONE',  ( -2.750000000000000400, -1.000000000000000000, 2.750000000000000000 ) ) ;
#282 = CARTESIAN_POINT ( 'NONE',  ( 1.824903881562534000, -1.350000000000000100, 3.256524563752805100 ) ) ;
#283 = PLANE ( 'NONE',  #785 ) ;
#284 = AXIS2_PLACEMENT_3D ( 'NONE', #876, #184, #186 ) ;
#285 = CARTESIAN_POINT ( 'NONE',  ( -3.000000000000000000, 1.000000000000000000, 2.999999999999999600 ) ) ;
#286 = VECTOR ( 'NONE', #1036, 1000.000000000000000 ) ;
#287 = DIRECTION ( 'NONE',  ( 0.0000000000000000000, 1.000000000000000000, 0.0000000000000000000 ) ) ;
#288 = DIRECTION ( 'NONE',  ( -0.0000000000000000000, 1.000000000000000000, 0.0000000000000000000 ) ) ;
#289 =( NAMED_UNIT ( * ) PLANE_ANGLE_UNIT ( ) SI_UNIT ( $, .RADIAN. ) );
#290 = ADVANCED_FACE ( 'NONE', ( #918 ), #731, .T. ) ;
#291 = EDGE_LOOP ( 'NONE', ( #223, #309, #840, #75 ) ) ;
#292 = EDGE_CURVE ( 'NONE', #999, #762, #391, .T. ) ;
#293 = CARTESIAN_POINT ( 'NONE',  ( -1.824903881562534000, -1.050000000000000000, -3.256524563752805100 ) ) ;
#294 = ORIENTED_EDGE ( 'NONE', *, *, #123, .T. ) ;
#295 = ORIENTED_EDGE ( 'NONE', *, *, #404, .T. ) ;
#296 = ORIENTED_EDGE ( 'NONE', *, *, #592, .T. ) ;
#297 = CARTESIAN_POINT ( 'NONE',  ( -3.000000000000000000, -1.350000000000000100, 2.499999999999998200 ) ) ;
#298 = DIRECTION ( 'NONE',  ( -1.000000000000000000, -0.0000000000000000000, -0.0000000000000000000 ) ) ;
#299 = CARTESIAN_POINT ( 'NONE',  ( -2.750000000000000900, -1.000000000000000000, -2.750000000000000000 ) ) ;
#300 = CARTESIAN_POINT ( 'NONE',  ( -3.000000000000000900, 1.350000000000000100, -2.500000000000000400 ) ) ;
#301 = EDGE_CURVE ( 'NONE', #311, #515, #155, .T. ) ;
#302 = AXIS2_PLACEMENT_3D ( 'NONE', #31, #110, #906 ) ;
#303 = DIRECTION ( 'NONE',  ( -1.000000000000000000, -0.0000000000000000000, -0.0000000000000000000 ) ) ;
#304 = ADVANCED_FACE ( 'NONE', ( #211 ), #506, .F. ) ;
#305 = DIRECTION ( 'NONE',  ( 0.0000000000000000000, 0.0000000000000000000, -1.000000000000000000 ) ) ;
#306 = APPLICATION_CONTEXT ( 'automotive_design' ) ;
#307 = VECTOR ( 'NONE', #938, 1000.000000000000000 ) ;
#308 = PLANE ( 'NONE',  #589 ) ;
#309 = ORIENTED_EDGE ( 'NONE', *, *, #324, .T. ) ;
#310 = ORIENTED_EDGE ( 'NONE', *, *, #844, .T. ) ;
#311 = VERTEX_POINT ( 'NONE', #1101 ) ;
#312 = PLANE ( 'NONE',  #764 ) ;
#313 = ORIENTED_EDGE ( 'NONE', *, *, #102, .T. ) ;
#314 = EDGE_CURVE ( 'NONE', #67, #1012, #882, .T. ) ;
#315 =( GEOMETRIC_REPRESENTATION_CONTEXT ( 3 ) GLOBAL_UNCERTAINTY_ASSIGNED_CONTEXT ( ( #782 ) ) GLOBAL_UNIT_ASSIGNED_CONTEXT ( ( #959, #593, #424 ) ) REPRESENTATION_CONTEXT ( 'NONE', 'WORKASPACE' ) );
#316 = LINE ( 'NONE', #776, #62 ) ;
#317 = CARTESIAN_POINT ( 'NONE',  ( 0.0000000000000000000, -1.350000000000000100, 0.0000000000000000000 ) ) ;
#318 = COLOUR_RGB ( '',0.7921568627450980000, 0.8196078431372548800, 0.9333333333333333500 ) ;
#319 = FACE_OUTER_BOUND ( 'NONE', #558, .T. ) ;
#320 = VERTEX_POINT ( 'NONE', #411 ) ;
#321 = ORIENTED_EDGE ( 'NONE', *, *, #70, .T. ) ;
#322 = DIRECTION ( 'NONE',  ( 0.0000000000000000000, 0.0000000000000000000, -1.000000000000000000 ) ) ;
#323 = ORIENTED_EDGE ( 'NONE', *, *, #958, .F. ) ;
#324 = EDGE_CURVE ( 'NONE', #822, #406, #537, .T. ) ;
#325 =( GEOMETRIC_REPRESENTATION_CONTEXT ( 3 ) GLOBAL_UNCERTAINTY_ASSIGNED_CONTEXT ( ( #362 ) ) GLOBAL_UNIT_ASSIGNED_CONTEXT ( ( #1079, #191, #209 ) ) REPRESENTATION_CONTEXT ( 'NONE', 'WORKASPACE' ) );
#326 = CARTESIAN_POINT ( 'NONE',  ( -1.824903881562534000, -1.050000000000000000, 3.256524563752805100 ) ) ;
#327 = CARTESIAN_POINT ( 'NONE',  ( -3.000000000000000900, -1.350000000000000100, -3.000000000000000400 ) ) ;
#328 = STYLED_ITEM ( 'NONE', ( #702 ), #371 ) ;
#329 = LINE ( 'NONE', #280, #374 ) ;
#330 = LINE ( 'NONE', #140, #307 ) ;
#331 = ORIENTED_EDGE ( 'NONE', *, *, #613, .T. ) ;
#332 = ORIENTED_EDGE ( 'NONE', *, *, #741, .F. ) ;
#333 = EDGE_CURVE ( 'NONE', #978, #922, #330, .T. ) ;
#334 = PRESENTATION_LAYER_ASSIGNMENT (  '', '', ( #986 ) ) ;
#335 = DIRECTION ( 'NONE',  ( -0.0000000000000000000, -0.0000000000000000000, 1.000000000000000000 ) ) ;
#336 = FILL_AREA_STYLE ('',( #519 ) ) ;
#337 = FILL_AREA_STYLE ('',( #1028 ) ) ;
#338 = EDGE_CURVE ( 'NONE', #42, #1118, #39, .T. ) ;
#339 = MECHANICAL_DESIGN_GEOMETRIC_PRESENTATION_REPRESENTATION (  '', ( #1089 ), #407 ) ;
#340 = SURFACE_STYLE_FILL_AREA ( #1007 ) ;
#341 = COLOUR_RGB ( '',0.0000000000000000000, 0.0000000000000000000, 0.0000000000000000000 ) ;
#342 = ORIENTED_EDGE ( 'NONE', *, *, #314, .F. ) ;
#343 = LINE ( 'NONE', #674, #689 ) ;
#344 = VERTEX_POINT ( 'NONE', #61 ) ;
#345 = VERTEX_POINT ( 'NONE', #500 ) ;
#346 = VERTEX_POINT ( 'NONE', #864 ) ;
#347 = FILL_AREA_STYLE_COLOUR ( '', #965 ) ;
#348 = DIRECTION ( 'NONE',  ( 0.0000000000000000000, -1.000000000000000000, 0.0000000000000000000 ) ) ;
#349 = AXIS2_PLACEMENT_3D ( 'NONE', #811, #451, #889 ) ;
#350 = DIRECTION ( 'NONE',  ( -0.0000000000000000000, -1.000000000000000000, -0.0000000000000000000 ) ) ;
#351 = EDGE_CURVE ( 'NONE', #311, #67, #425, .T. ) ;
#352 = LINE ( 'NONE', #1111, #286 ) ;
#353 = CARTESIAN_POINT ( 'NONE',  ( -1.824903881562534000, -1.050000000000000000, 3.256524563752805100 ) ) ;
#354 = AXIS2_PLACEMENT_3D ( 'NONE', #460, #912, #925 ) ;
#355 = VECTOR ( 'NONE', #255, 1000.000000000000000 ) ;
#356 = ORIENTED_EDGE ( 'NONE', *, *, #431, .T. ) ;
#357 = LINE ( 'NONE', #282, #612 ) ;
#358 = CARTESIAN_POINT ( 'NONE',  ( -2.500000000000000900, 1.350000000000000100, -3.000000000000000400 ) ) ;
#359 = EDGE_LOOP ( 'NONE', ( #870, #1023, #183, #416 ) ) ;
#360 = DIRECTION ( 'NONE',  ( -0.0000000000000000000, 0.0000000000000000000, 1.000000000000000000 ) ) ;
#361 = AXIS2_PLACEMENT_3D ( 'NONE', #353, #636, #360 ) ;
#362 = UNCERTAINTY_MEASURE_WITH_UNIT (LENGTH_MEASURE( 1.000000000000000100E-005 ), #1079, 'distance_accuracy_value', 'NONE');
#363 = CARTESIAN_POINT ( 'NONE',  ( -3.000000000000000900, -1.350000000000000100, -2.500000000000000400 ) ) ;
#364 = ADVANCED_FACE ( 'NONE', ( #168, #942 ), #157, .T. ) ;
#365 = DIRECTION ( 'NONE',  ( -0.0000000000000000000, -0.0000000000000000000, 1.000000000000000000 ) ) ;
#366 = DIRECTION ( 'NONE',  ( -0.0000000000000000000, 1.000000000000000000, 0.0000000000000000000 ) ) ;
#367 = LINE ( 'NONE', #557, #241 ) ;
#368 = CARTESIAN_POINT ( 'NONE',  ( -2.500000000000000000, -1.350000000000000100, 2.999999999999999600 ) ) ;
#369 = VECTOR ( 'NONE', #38, 1000.000000000000000 ) ;
#370 = CARTESIAN_POINT ( 'NONE',  ( -3.000000000000000000, -1.350000000000000100, 2.999999999999999600 ) ) ;
#371 = ADVANCED_FACE ( 'NONE', ( #51 ), #1110, .F. ) ;
#372 = EDGE_CURVE ( 'NONE', #587, #200, #760, .T. ) ;
#373 = DIRECTION ( 'NONE',  ( -1.000000000000000000, -0.0000000000000000000, -0.0000000000000000000 ) ) ;
#374 = VECTOR ( 'NONE', #653, 1000.000000000000000 ) ;
#375 = ORIENTED_EDGE ( 'NONE', *, *, #59, .F. ) ;
#376 = FACE_OUTER_BOUND ( 'NONE', #251, .T. ) ;
#377 = CARTESIAN_POINT ( 'NONE',  ( 0.0000000000000000000, 1.350000000000000100, 0.0000000000000000000 ) ) ;
#378 = ORIENTED_EDGE ( 'NONE', *, *, #880, .F. ) ;
#379 = ORIENTED_EDGE ( 'NONE', *, *, #181, .T. ) ;
#380 = DIRECTION ( 'NONE',  ( 1.000000000000000000, 0.0000000000000000000, -0.0000000000000000000 ) ) ;
#381 = ORIENTED_EDGE ( 'NONE', *, *, #176, .T. ) ;
#382 = ADVANCED_FACE ( 'NONE', ( #525 ), #249, .F. ) ;
#383 = CARTESIAN_POINT ( 'NONE',  ( -1.824903881562534000, -1.350000000000000100, 2.999999999999999600 ) ) ;
#384 = DIRECTION ( 'NONE',  ( -1.000000000000000000, -0.0000000000000000000, -0.0000000000000000000 ) ) ;
#385 = CARTESIAN_POINT ( 'NONE',  ( -2.500000000000000000, -1.350000000000000100, 2.499999999999998200 ) ) ;
#386 = CARTESIAN_POINT ( 'NONE',  ( -1.824903881562534000, -1.350000000000000100, -3.000000000000000400 ) ) ;
#387 = FACE_OUTER_BOUND ( 'NONE', #122, .T. ) ;
#388 =( NAMED_UNIT ( * ) SI_UNIT ( $, .STERADIAN. ) SOLID_ANGLE_UNIT ( ) );
#389 = DIRECTION ( 'NONE',  ( 1.000000000000000000, 0.0000000000000000000, 0.0000000000000000000 ) ) ;
#390 = VECTOR ( 'NONE', #524, 1000.000000000000000 ) ;
#391 = LINE ( 'NONE', #229, #680 ) ;
#392 = AXIS2_PLACEMENT_3D ( 'NONE', #1056, #544, #1070 ) ;
#393 = ORIENTED_EDGE ( 'NONE', *, *, #865, .T. ) ;
#394 = LINE ( 'NONE', #638, #597 ) ;
#395 =( NAMED_UNIT ( * ) PLANE_ANGLE_UNIT ( ) SI_UNIT ( $, .RADIAN. ) );
#396 = ADVANCED_FACE ( 'NONE', ( #116 ), #270, .T. ) ;
#397 = DIRECTION ( 'NONE',  ( -1.000000000000000000, 0.0000000000000000000, -0.0000000000000000000 ) ) ;
#398 = CARTESIAN_POINT ( 'NONE',  ( -3.000000000000000000, -1.000000000000000000, 2.999999999999999600 ) ) ;
#399 = EDGE_CURVE ( 'NONE', #904, #90, #502, .T. ) ;
#400 = STYLED_ITEM ( 'NONE', ( #85 ), #924 ) ;
#401 = DIRECTION ( 'NONE',  ( 0.0000000000000000000, 0.0000000000000000000, 1.000000000000000000 ) ) ;
#402 = VECTOR ( 'NONE', #92, 1000.000000000000000 ) ;
#403 = FACE_OUTER_BOUND ( 'NONE', #720, .T. ) ;
#404 = EDGE_CURVE ( 'NONE', #512, #978, #442, .T. ) ;
#405 = VERTEX_POINT ( 'NONE', #6 ) ;
#406 = VERTEX_POINT ( 'NONE', #797 ) ;
#407 =( GEOMETRIC_REPRESENTATION_CONTEXT ( 3 ) GLOBAL_UNCERTAINTY_ASSIGNED_CONTEXT ( ( #480 ) ) GLOBAL_UNIT_ASSIGNED_CONTEXT ( ( #1075, #289, #47 ) ) REPRESENTATION_CONTEXT ( 'NONE', 'WORKASPACE' ) );
#408 = ORIENTED_EDGE ( 'NONE', *, *, #1076, .T. ) ;
#409 = ORIENTED_EDGE ( 'NONE', *, *, #838, .T. ) ;
#410 = DIRECTION ( 'NONE',  ( 0.0000000000000000000, 1.000000000000000000, 0.0000000000000000000 ) ) ;
#411 = CARTESIAN_POINT ( 'NONE',  ( -2.500000000000000000, 1.000000000000000000, 2.999999999999999600 ) ) ;
#412 = AXIS2_PLACEMENT_3D ( 'NONE', #1074, #814, #275 ) ;
#413 = CIRCLE ( 'NONE', #354, 0.5000000000000000000 ) ;
#414 = VECTOR ( 'NONE', #447, 1000.000000000000000 ) ;
#415 = LINE ( 'NONE', #915, #859 ) ;
#416 = ORIENTED_EDGE ( 'NONE', *, *, #225, .T. ) ;
#417 = DIRECTION ( 'NONE',  ( 1.000000000000000000, 0.0000000000000000000, -0.0000000000000000000 ) ) ;
#418 = ORIENTED_EDGE ( 'NONE', *, *, #324, .F. ) ;
#419 = AXIS2_PLACEMENT_3D ( 'NONE', #743, #1060, #739 ) ;
#420 = CARTESIAN_POINT ( 'NONE',  ( 2.499999999999999600, -1.350000000000000100, 2.999999999999999600 ) ) ;
#421 = MECHANICAL_DESIGN_GEOMETRIC_PRESENTATION_REPRESENTATION (  '', ( #328 ), #1019 ) ;
#422 = CARTESIAN_POINT ( 'NONE',  ( 0.0000000000000000000, 1.000000000000000000, 0.0000000000000000000 ) ) ;
#423 = VECTOR ( 'NONE', #800, 1000.000000000000000 ) ;
#424 =( NAMED_UNIT ( * ) SI_UNIT ( $, .STERADIAN. ) SOLID_ANGLE_UNIT ( ) );
#425 = LINE ( 'NONE', #605, #355 ) ;
#426 = VERTEX_POINT ( 'NONE', #271 ) ;
#427 =( NAMED_UNIT ( * ) PLANE_ANGLE_UNIT ( ) SI_UNIT ( $, .RADIAN. ) );
#428 = ORIENTED_EDGE ( 'NONE', *, *, #97, .T. ) ;
#429 = ORIENTED_EDGE ( 'NONE', *, *, #874, .F. ) ;
#430 =( NAMED_UNIT ( * ) SI_UNIT ( $, .STERADIAN. ) SOLID_ANGLE_UNIT ( ) );
#431 = EDGE_CURVE ( 'NONE', #922, #873, #857, .T. ) ;
#432 = DIRECTION ( 'NONE',  ( -0.0000000000000000000, -1.000000000000000000, -0.0000000000000000000 ) ) ;
#433 = CARTESIAN_POINT ( 'NONE',  ( 2.499999999999998700, 1.000000000000000000, -3.000000000000000400 ) ) ;
#434 = DIRECTION ( 'NONE',  ( 1.000000000000000000, 0.0000000000000000000, 0.0000000000000000000 ) ) ;
#435 = UNCERTAINTY_MEASURE_WITH_UNIT (LENGTH_MEASURE( 1.000000000000000100E-005 ), #937, 'distance_accuracy_value', 'NONE');
#436 = DIRECTION ( 'NONE',  ( 0.0000000000000000000, -0.0000000000000000000, 1.000000000000000000 ) ) ;
#437 = EDGE_CURVE ( 'NONE', #703, #652, #789, .T. ) ;
#438 = DIRECTION ( 'NONE',  ( -0.0000000000000000000, -1.000000000000000000, 0.0000000000000000000 ) ) ;
#439 = CARTESIAN_POINT ( 'NONE',  ( -2.500000000000000000, 1.350000000000000100, 2.499999999999998200 ) ) ;
#440 = AXIS2_PLACEMENT_3D ( 'NONE', #705, #256, #715 ) ;
#441 = COLOUR_RGB ( '',0.0000000000000000000, 0.0000000000000000000, 0.0000000000000000000 ) ;
#442 = LINE ( 'NONE', #443, #50 ) ;
#443 = CARTESIAN_POINT ( 'NONE',  ( -3.000000000000000900, -1.350000000000000100, -2.500000000000000400 ) ) ;
#444 = VECTOR ( 'NONE', #303, 1000.000000000000000 ) ;
#445 = ORIENTED_EDGE ( 'NONE', *, *, #372, .F. ) ;
#446 = ORIENTED_EDGE ( 'NONE', *, *, #788, .T. ) ;
#447 = DIRECTION ( 'NONE',  ( 1.000000000000000000, -0.0000000000000000000, 0.0000000000000000000 ) ) ;
#448 = VERTEX_POINT ( 'NONE', #14 ) ;
#449 = CARTESIAN_POINT ( 'NONE',  ( -3.000000000000000000, -1.350000000000000100, 2.499999999999998200 ) ) ;
#450 = MECHANICAL_DESIGN_GEOMETRIC_PRESENTATION_REPRESENTATION (  '', ( #696 ), #325 ) ;
#451 = DIRECTION ( 'NONE',  ( -0.0000000000000000000, -1.000000000000000000, -0.0000000000000000000 ) ) ;
#452 = CARTESIAN_POINT ( 'NONE',  ( -2.500000000000000900, -1.350000000000000100, -3.000000000000000400 ) ) ;
#453 = CYLINDRICAL_SURFACE ( 'NONE', #678, 0.5000000000000000000 ) ;
#454 = DIRECTION ( 'NONE',  ( 0.0000000000000000000, 1.000000000000000000, 0.0000000000000000000 ) ) ;
#455 = ORIENTED_EDGE ( 'NONE', *, *, #1047, .T. ) ;
#456 = LINE ( 'NONE', #826, #1096 ) ;
#457 = CARTESIAN_POINT ( 'NONE',  ( 2.499999999999999600, -1.350000000000000100, 2.999999999999999600 ) ) ;
#458 = ORIENTED_EDGE ( 'NONE', *, *, #887, .T. ) ;
#459 = ORIENTED_EDGE ( 'NONE', *, *, #176, .F. ) ;
#460 = CARTESIAN_POINT ( 'NONE',  ( -2.500000000000000000, 1.000000000000000000, 2.499999999999998200 ) ) ;
#461 = ADVANCED_FACE ( 'NONE', ( #778 ), #794, .T. ) ;
#462 = ORIENTED_EDGE ( 'NONE', *, *, #404, .F. ) ;
#463 = DIRECTION ( 'NONE',  ( -0.0000000000000000000, -1.000000000000000000, 0.0000000000000000000 ) ) ;
#464 = ORIENTED_EDGE ( 'NONE', *, *, #687, .F. ) ;
#465 =( LENGTH_UNIT ( ) NAMED_UNIT ( * ) SI_UNIT ( .MILLI., .METRE. ) );
#466 = EDGE_CURVE ( 'NONE', #345, #998, #716, .T. ) ;
#467 = SURFACE_STYLE_USAGE ( .BOTH. , #979 ) ;
#468 = STYLED_ITEM ( 'NONE', ( #992 ), #841 ) ;
#469 = DIRECTION ( 'NONE',  ( 0.0000000000000000000, 0.0000000000000000000, -1.000000000000000000 ) ) ;
#470 = CARTESIAN_POINT ( 'NONE',  ( -2.500000000000000900, -1.000000000000000000, -3.000000000000000400 ) ) ;
#471 = CARTESIAN_POINT ( 'NONE',  ( -1.824903881562534000, -1.350000000000000100, -3.000000000000000900 ) ) ;
#472 = FILL_AREA_STYLE_COLOUR ( '', #318 ) ;
#473 = LINE ( 'NONE', #535, #1021 ) ;
#474 = EDGE_CURVE ( 'NONE', #998, #448, #73, .T. ) ;
#475 = DIRECTION ( 'NONE',  ( 0.0000000000000000000, 0.0000000000000000000, -1.000000000000000000 ) ) ;
#476 = CARTESIAN_POINT ( 'NONE',  ( 1.824903881562534000, -1.050000000000000000, 2.999999999999999600 ) ) ;
#477 = VECTOR ( 'NONE', #410, 1000.000000000000000 ) ;
#478 = ORIENTED_EDGE ( 'NONE', *, *, #301, .F. ) ;
#479 = ORIENTED_EDGE ( 'NONE', *, *, #1024, .T. ) ;
#480 = UNCERTAINTY_MEASURE_WITH_UNIT (LENGTH_MEASURE( 1.000000000000000100E-005 ), #1075, 'distance_accuracy_value', 'NONE');
#481 = APPLICATION_PROTOCOL_DEFINITION ( 'draft international standard', 'automotive_design', 1998, #43 ) ;
#482 = CARTESIAN_POINT ( 'NONE',  ( -2.500000000000000000, -1.350000000000000100, 2.999999999999999600 ) ) ;
#483 = CARTESIAN_POINT ( 'NONE',  ( 2.749999999999999100, 1.000000000000000000, -2.750000000000000000 ) ) ;
#484 = EDGE_CURVE ( 'NONE', #850, #848, #536, .T. ) ;
#485 = ADVANCED_FACE ( 'NONE', ( #591 ), #974, .T. ) ;
#486 = PLANE ( 'NONE',  #700 ) ;
#487 = APPLICATION_PROTOCOL_DEFINITION ( 'draft international standard', 'automotive_design', 1998, #306 ) ;
#488 = CIRCLE ( 'NONE', #839, 0.5000000000000000000 ) ;
#489 = FACE_OUTER_BOUND ( 'NONE', #24, .T. ) ;
#490 = COLOUR_RGB ( '',0.0000000000000000000, 0.0000000000000000000, 0.0000000000000000000 ) ;
#491 = AXIS2_PLACEMENT_3D ( 'NONE', #541, #993, #40 ) ;
#492 = DIRECTION ( 'NONE',  ( -1.000000000000000000, 0.0000000000000000000, -0.0000000000000000000 ) ) ;
#493 = ORIENTED_EDGE ( 'NONE', *, *, #874, .T. ) ;
#494 = CIRCLE ( 'NONE', #349, 0.5000000000000000000 ) ;
#495 = PRODUCT_CONTEXT ( 'NONE', #306, 'mechanical' ) ;
#496 = ORIENTED_EDGE ( 'NONE', *, *, #1103, .T. ) ;
#497 = CARTESIAN_POINT ( 'NONE',  ( 2.999999999999999100, -1.350000000000000100, -2.500000000000000400 ) ) ;
#498 = ORIENTED_EDGE ( 'NONE', *, *, #64, .F. ) ;
#499 = EDGE_CURVE ( 'NONE', #344, #217, #664, .T. ) ;
#500 = CARTESIAN_POINT ( 'NONE',  ( -2.500000000000000000, 1.350000000000000100, 2.999999999999999600 ) ) ;
#501 = CYLINDRICAL_SURFACE ( 'NONE', #226, 0.5000000000000000000 ) ;
#502 = LINE ( 'NONE', #2, #143 ) ;
#503 = LINE ( 'NONE', #660, #232 ) ;
#504 = ORIENTED_EDGE ( 'NONE', *, *, #333, .T. ) ;
#505 = ORIENTED_EDGE ( 'NONE', *, *, #963, .T. ) ;
#506 = PLANE ( 'NONE',  #195 ) ;
#507 = SURFACE_STYLE_USAGE ( .BOTH. , #508 ) ;
#508 = SURFACE_SIDE_STYLE ('',( #72 ) ) ;
#509 = CARTESIAN_POINT ( 'NONE',  ( 2.749999999999999100, -1.000000000000000000, -2.750000000000000000 ) ) ;
#510 = ORIENTED_EDGE ( 'NONE', *, *, #257, .T. ) ;
#511 = SURFACE_SIDE_STYLE ('',( #247 ) ) ;
#512 = VERTEX_POINT ( 'NONE', #888 ) ;
#513 = CARTESIAN_POINT ( 'NONE',  ( -3.000000000000000000, -1.350000000000000100, 2.499999999999998200 ) ) ;
#514 = ORIENTED_EDGE ( 'NONE', *, *, #181, .F. ) ;
#515 = VERTEX_POINT ( 'NONE', #973 ) ;
#516 = DIRECTION ( 'NONE',  ( 0.0000000000000000000, 0.0000000000000000000, 1.000000000000000000 ) ) ;
#517 = EDGE_LOOP ( 'NONE', ( #668, #932, #323, #459 ) ) ;
#518 = DIRECTION ( 'NONE',  ( 1.000000000000000000, 0.0000000000000000000, 0.0000000000000000000 ) ) ;
#519 = FILL_AREA_STYLE_COLOUR ( '', #667 ) ;
#520 = DIRECTION ( 'NONE',  ( 0.0000000000000000000, 0.0000000000000000000, 1.000000000000000000 ) ) ;
#521 = PLANE ( 'NONE',  #926 ) ;
#522 = LINE ( 'NONE', #127, #989 ) ;
#523 = SURFACE_STYLE_FILL_AREA ( #711 ) ;
#524 = DIRECTION ( 'NONE',  ( 0.0000000000000000000, 1.000000000000000000, -0.0000000000000000000 ) ) ;
#525 = FACE_OUTER_BOUND ( 'NONE', #823, .T. ) ;
#526 = VERTEX_POINT ( 'NONE', #358 ) ;
#527 = ORIENTED_EDGE ( 'NONE', *, *, #709, .F. ) ;
#528 = ORIENTED_EDGE ( 'NONE', *, *, #1055, .F. ) ;
#529 = DIRECTION ( 'NONE',  ( 0.0000000000000000000, 0.0000000000000000000, 1.000000000000000000 ) ) ;
#530 = ORIENTED_EDGE ( 'NONE', *, *, #499, .T. ) ;
#531 = AXIS2_PLACEMENT_3D ( 'NONE', #573, #1006, #48 ) ;
#532 = PLANE ( 'NONE',  #1033 ) ;
#533 = CARTESIAN_POINT ( 'NONE',  ( -2.500000000000000000, -1.350000000000000100, 2.999999999999999600 ) ) ;
#534 = FACE_OUTER_BOUND ( 'NONE', #807, .T. ) ;
#535 = CARTESIAN_POINT ( 'NONE',  ( -3.000000000000000000, -1.350000000000000100, 2.999999999999999600 ) ) ;
#536 = LINE ( 'NONE', #1046, #210 ) ;
#537 = LINE ( 'NONE', #497, #869 ) ;
#538 = ORIENTED_EDGE ( 'NONE', *, *, #788, .F. ) ;
#539 = ORIENTED_EDGE ( 'NONE', *, *, #499, .F. ) ;
#540 = ORIENTED_EDGE ( 'NONE', *, *, #741, .T. ) ;
#541 = CARTESIAN_POINT ( 'NONE',  ( 2.499999999999999100, -1.350000000000000100, -2.500000000000000400 ) ) ;
#542 = DIRECTION ( 'NONE',  ( 1.000000000000000000, 0.0000000000000000000, 0.0000000000000000000 ) ) ;
#543 = PLANE ( 'NONE',  #284 ) ;
#544 = DIRECTION ( 'NONE',  ( -0.0000000000000000000, -1.000000000000000000, -0.0000000000000000000 ) ) ;
#545 = DIRECTION ( 'NONE',  ( 0.0000000000000000000, 0.0000000000000000000, 1.000000000000000000 ) ) ;
#546 = SURFACE_STYLE_USAGE ( .BOTH. , #568 ) ;
#547 = EDGE_CURVE ( 'NONE', #999, #426, #747, .T. ) ;
#548 = LINE ( 'NONE', #71, #219 ) ;
#549 = FACE_OUTER_BOUND ( 'NONE', #1042, .T. ) ;
#550 = DIRECTION ( 'NONE',  ( 0.0000000000000000000, -1.000000000000000000, 0.0000000000000000000 ) ) ;
#551 = VECTOR ( 'NONE', #373, 1000.000000000000000 ) ;
#552 = ORIENTED_EDGE ( 'NONE', *, *, #613, .F. ) ;
#553 = ORIENTED_EDGE ( 'NONE', *, *, #724, .F. ) ;
#554 = CARTESIAN_POINT ( 'NONE',  ( 3.000000000000000000, -1.350000000000000100, 2.499999999999999100 ) ) ;
#555 = ORIENTED_EDGE ( 'NONE', *, *, #36, .F. ) ;
#556 = VERTEX_POINT ( 'NONE', #905 ) ;
#557 = CARTESIAN_POINT ( 'NONE',  ( 2.749999999999999100, 1.000000000000000000, -2.750000000000000000 ) ) ;
#558 = EDGE_LOOP ( 'NONE', ( #1072, #277, #144, #408 ) ) ;
#559 =( NAMED_UNIT ( * ) SI_UNIT ( $, .STERADIAN. ) SOLID_ANGLE_UNIT ( ) );
#560 = EDGE_CURVE ( 'NONE', #448, #671, #7, .T. ) ;
#561 = ADVANCED_FACE ( 'NONE', ( #319 ), #283, .F. ) ;
#562 = FILL_AREA_STYLE_COLOUR ( '', #341 ) ;
#563 = DIRECTION ( 'NONE',  ( -1.000000000000000000, 0.0000000000000000000, 0.0000000000000000000 ) ) ;
#564 = DIRECTION ( 'NONE',  ( 1.445602896647339400E-016, -0.0000000000000000000, 1.000000000000000000 ) ) ;
#565 = DIRECTION ( 'NONE',  ( -1.000000000000000000, 0.0000000000000000000, 7.885106708985487800E-017 ) ) ;
#566 = ADVANCED_FACE ( 'NONE', ( #688 ), #987, .T. ) ;
#567 = DIRECTION ( 'NONE',  ( 0.0000000000000000000, 1.000000000000000000, 0.0000000000000000000 ) ) ;
#568 = SURFACE_SIDE_STYLE ('',( #340 ) ) ;
#569 = LINE ( 'NONE', #713, #1091 ) ;
#570 = FACE_OUTER_BOUND ( 'NONE', #872, .T. ) ;
#571 = SURFACE_STYLE_USAGE ( .BOTH. , #1016 ) ;
#572 = LINE ( 'NONE', #386, #594 ) ;
#573 = CARTESIAN_POINT ( 'NONE',  ( 2.499999999999999600, -1.000000000000000000, 2.499999999999999600 ) ) ;
#574 = VERTEX_POINT ( 'NONE', #293 ) ;
#575 = ADVANCED_FACE ( 'NONE', ( #916 ), #662, .T. ) ;
#576 = ORIENTED_EDGE ( 'NONE', *, *, #230, .F. ) ;
#577 = DIRECTION ( 'NONE',  ( 0.0000000000000000000, -1.000000000000000000, 0.0000000000000000000 ) ) ;
#578 = ADVANCED_BREP_SHAPE_REPRESENTATION ( 'C266430_220_inductor', ( #841, #672 ), #273 ) ;
#579 = EDGE_CURVE ( 'NONE', #405, #344, #88, .T. ) ;
#580 = DIRECTION ( 'NONE',  ( -0.0000000000000000000, -1.000000000000000000, -0.0000000000000000000 ) ) ;
#581 = PLANE ( 'NONE',  #661 ) ;
#582 = FACE_OUTER_BOUND ( 'NONE', #970, .T. ) ;
#583 = MECHANICAL_DESIGN_GEOMETRIC_PRESENTATION_REPRESENTATION (  '', ( #468 ), #654 ) ;
#584 = EDGE_LOOP ( 'NONE', ( #464, #505, #540, #310 ) ) ;
#585 = ORIENTED_EDGE ( 'NONE', *, *, #3, .T. ) ;
#586 = DIRECTION ( 'NONE',  ( -1.445602896647339400E-016, 0.0000000000000000000, -1.000000000000000000 ) ) ;
#587 = VERTEX_POINT ( 'NONE', #738 ) ;
#588 = ORIENTED_EDGE ( 'NONE', *, *, #732, .T. ) ;
#589 = AXIS2_PLACEMENT_3D ( 'NONE', #1078, #397, #756 ) ;
#590 = UNCERTAINTY_MEASURE_WITH_UNIT (LENGTH_MEASURE( 1.000000000000000100E-005 ), #106, 'distance_accuracy_value', 'NONE');
#591 = FACE_OUTER_BOUND ( 'NONE', #884, .T. ) ;
#592 = EDGE_CURVE ( 'NONE', #121, #103, #994, .T. ) ;
#593 =( NAMED_UNIT ( * ) PLANE_ANGLE_UNIT ( ) SI_UNIT ( $, .RADIAN. ) );
#594 = VECTOR ( 'NONE', #220, 1000.000000000000000 ) ;
#595 = VERTEX_POINT ( 'NONE', #470 ) ;
#596 = MECHANICAL_DESIGN_GEOMETRIC_PRESENTATION_REPRESENTATION (  '', ( #400 ), #315 ) ;
#597 = VECTOR ( 'NONE', #1066, 1000.000000000000000 ) ;
#598 = SURFACE_SIDE_STYLE ('',( #1084 ) ) ;
#599 = ORIENTED_EDGE ( 'NONE', *, *, #97, .F. ) ;
#600 = EDGE_CURVE ( 'NONE', #793, #1034, #768, .T. ) ;
#601 = CARTESIAN_POINT ( 'NONE',  ( 0.0000000000000000000, -1.000000000000000000, 0.0000000000000000000 ) ) ;
#602 = DIRECTION ( 'NONE',  ( -1.445602896647339400E-016, 0.0000000000000000000, -1.000000000000000000 ) ) ;
#603 = MECHANICAL_DESIGN_GEOMETRIC_PRESENTATION_REPRESENTATION (  '', ( #1117 ), #60 ) ;
#604 = CARTESIAN_POINT ( 'NONE',  ( -2.750000000000000400, 1.000000000000000000, 2.750000000000000000 ) ) ;
#605 = CARTESIAN_POINT ( 'NONE',  ( -1.824903881562534000, -1.050000000000000000, 3.256524563752805100 ) ) ;
#606 = DIRECTION ( 'NONE',  ( 0.0000000000000000000, 1.000000000000000000, 0.0000000000000000000 ) ) ;
#607 = LINE ( 'NONE', #203, #369 ) ;
#608 = VECTOR ( 'NONE', #620, 1000.000000000000000 ) ;
#609 = LINE ( 'NONE', #816, #65 ) ;
#610 = ORIENTED_EDGE ( 'NONE', *, *, #732, .F. ) ;
#611 = FILL_AREA_STYLE_COLOUR ( '', #490 ) ;
#612 = VECTOR ( 'NONE', #365, 1000.000000000000000 ) ;
#613 = EDGE_CURVE ( 'NONE', #121, #748, #609, .T. ) ;
#614 = ORIENTED_EDGE ( 'NONE', *, *, #372, .T. ) ;
#615 = ORIENTED_EDGE ( 'NONE', *, *, #257, .F. ) ;
#616 =( LENGTH_UNIT ( ) NAMED_UNIT ( * ) SI_UNIT ( .MILLI., .METRE. ) );
#617 = ORIENTED_EDGE ( 'NONE', *, *, #1004, .F. ) ;
#618 = CARTESIAN_POINT ( 'NONE',  ( -3.000000000000000000, 1.350000000000000100, 2.999999999999999600 ) ) ;
#619 = CARTESIAN_POINT ( 'NONE',  ( 1.824903881562534000, -1.350000000000000100, 2.999999999999999600 ) ) ;
#620 = DIRECTION ( 'NONE',  ( -0.0000000000000000000, -1.000000000000000000, -0.0000000000000000000 ) ) ;
#621 = EDGE_CURVE ( 'NONE', #652, #574, #329, .T. ) ;
#622 = CARTESIAN_POINT ( 'NONE',  ( -3.000000000000000900, -1.050000000000000000, -3.000000000000000400 ) ) ;
#623 = DIRECTION ( 'NONE',  ( 0.0000000000000000000, 1.000000000000000000, 0.0000000000000000000 ) ) ;
#624 = PRESENTATION_STYLE_ASSIGNMENT (( #961 ) ) ;
#625 = VECTOR ( 'NONE', #438, 1000.000000000000000 ) ;
#626 = PRESENTATION_STYLE_ASSIGNMENT (( #784 ) ) ;
#627 = FILL_AREA_STYLE_COLOUR ( '', #441 ) ;
#628 = ORIENTED_EDGE ( 'NONE', *, *, #292, .F. ) ;
#629 = ORIENTED_EDGE ( 'NONE', *, *, #123, .F. ) ;
#630 = DIRECTION ( 'NONE',  ( -0.0000000000000000000, 1.000000000000000000, 0.0000000000000000000 ) ) ;
#631 = AXIS2_PLACEMENT_3D ( 'NONE', #755, #305, #492 ) ;
#632 = ORIENTED_EDGE ( 'NONE', *, *, #1062, .F. ) ;
#633 = CARTESIAN_POINT ( 'NONE',  ( 1.824903881562534000, -1.050000000000000000, 3.256524563752805100 ) ) ;
#634 = CLOSED_SHELL ( 'NONE', ( #899, #829, #913, #815, #108, #206, #641, #1005, #753, #746, #834, #924, #371, #561, #364, #304, #825, #290, #666, #659, #215, #396, #842, #278, #461, #192, #130, #575, #566, #485, #382, #1061 ) ) ;
#635 = UNCERTAINTY_MEASURE_WITH_UNIT (LENGTH_MEASURE( 1.000000000000000100E-005 ), #862, 'distance_accuracy_value', 'NONE');
#636 = DIRECTION ( 'NONE',  ( -1.000000000000000000, 0.0000000000000000000, -0.0000000000000000000 ) ) ;
#637 = CARTESIAN_POINT ( 'NONE',  ( -1.824903881562534000, -1.050000000000000000, -3.256524563752805100 ) ) ;
#638 = CARTESIAN_POINT ( 'NONE',  ( 2.999999999999999100, -1.000000000000000000, -3.000000000000000400 ) ) ;
#639 = EDGE_CURVE ( 'NONE', #1118, #346, #1038, .T. ) ;
#640 = DIRECTION ( 'NONE',  ( -7.885106708985487800E-017, -0.0000000000000000000, -1.000000000000000000 ) ) ;
#641 = ADVANCED_FACE ( 'NONE', ( #582 ), #453, .T. ) ;
#642 = DIRECTION ( 'NONE',  ( 0.0000000000000000000, 0.0000000000000000000, 1.000000000000000000 ) ) ;
#643 = VECTOR ( 'NONE', #580, 1000.000000000000000 ) ;
#644 = FACE_OUTER_BOUND ( 'NONE', #694, .T. ) ;
#645 = CARTESIAN_POINT ( 'NONE',  ( -2.750000000000000400, 1.000000000000000000, 2.750000000000000000 ) ) ;
#646 = LINE ( 'NONE', #299, #1102 ) ;
#647 = FILL_AREA_STYLE_COLOUR ( '', #19 ) ;
#648 = ORIENTED_EDGE ( 'NONE', *, *, #724, .T. ) ;
#649 = CIRCLE ( 'NONE', #531, 0.5000000000000000000 ) ;
#650 = DIRECTION ( 'NONE',  ( 0.0000000000000000000, -1.000000000000000000, 0.0000000000000000000 ) ) ;
#651 = ORIENTED_EDGE ( 'NONE', *, *, #547, .T. ) ;
#652 = VERTEX_POINT ( 'NONE', #1002 ) ;
#653 = DIRECTION ( 'NONE',  ( 0.0000000000000000000, 0.0000000000000000000, -1.000000000000000000 ) ) ;
#654 =( GEOMETRIC_REPRESENTATION_CONTEXT ( 3 ) GLOBAL_UNCERTAINTY_ASSIGNED_CONTEXT ( ( #162 ) ) GLOBAL_UNIT_ASSIGNED_CONTEXT ( ( #465, #757, #559 ) ) REPRESENTATION_CONTEXT ( 'NONE', 'WORKASPACE' ) );
#655 = ORIENTED_EDGE ( 'NONE', *, *, #437, .F. ) ;
#656 = CARTESIAN_POINT ( 'NONE',  ( -2.750000000000000400, 1.000000000000000000, 2.750000000000000000 ) ) ;
#657 = DIRECTION ( 'NONE',  ( 1.000000000000000000, 0.0000000000000000000, 0.0000000000000000000 ) ) ;
#658 = CARTESIAN_POINT ( 'NONE',  ( 2.499999999999999100, 1.350000000000000100, -2.500000000000000400 ) ) ;
#659 = ADVANCED_FACE ( 'NONE', ( #570 ), #63, .T. ) ;
#660 = CARTESIAN_POINT ( 'NONE',  ( -1.824903881562534000, -1.350000000000000100, -3.256524563752805100 ) ) ;
#661 = AXIS2_PLACEMENT_3D ( 'NONE', #686, #148, #586 ) ;
#662 = PLANE ( 'NONE',  #37 ) ;
#663 = DIRECTION ( 'NONE',  ( -1.000000000000000000, 0.0000000000000000000, 1.445602896647339400E-016 ) ) ;
#664 = CIRCLE ( 'NONE', #392, 0.5000000000000000000 ) ;
#665 = FILL_AREA_STYLE ('',( #472 ) ) ;
#666 = ADVANCED_FACE ( 'NONE', ( #967 ), #1094, .T. ) ;
#667 = COLOUR_RGB ( '',0.0000000000000000000, 0.0000000000000000000, 0.0000000000000000000 ) ;
#668 = ORIENTED_EDGE ( 'NONE', *, *, #1114, .F. ) ;
#669 = ORIENTED_EDGE ( 'NONE', *, *, #484, .F. ) ;
#670 = EDGE_CURVE ( 'NONE', #671, #263, #817, .T. ) ;
#671 = VERTEX_POINT ( 'NONE', #227 ) ;
#672 = AXIS2_PLACEMENT_3D ( 'NONE', #988, #138, #1014 ) ;
#673 =( NAMED_UNIT ( * ) PLANE_ANGLE_UNIT ( ) SI_UNIT ( $, .RADIAN. ) );
#674 = CARTESIAN_POINT ( 'NONE',  ( 2.999999999999999100, 1.000000000000000000, -3.000000000000000400 ) ) ;
#675 = UNCERTAINTY_MEASURE_WITH_UNIT (LENGTH_MEASURE( 1.000000000000000100E-005 ), #616, 'distance_accuracy_value', 'NONE');
#676 = CARTESIAN_POINT ( 'NONE',  ( -3.000000000000000900, -1.350000000000000100, -3.000000000000000400 ) ) ;
#677 = LINE ( 'NONE', #452, #1008 ) ;
#678 = AXIS2_PLACEMENT_3D ( 'NONE', #895, #287, #202 ) ;
#679 = FACE_OUTER_BOUND ( 'NONE', #773, .T. ) ;
#680 = VECTOR ( 'NONE', #322, 1000.000000000000000 ) ;
#681 = DIRECTION ( 'NONE',  ( 0.0000000000000000000, 1.000000000000000000, 0.0000000000000000000 ) ) ;
#682 = ORIENTED_EDGE ( 'NONE', *, *, #838, .F. ) ;
#683 = ORIENTED_EDGE ( 'NONE', *, *, #908, .F. ) ;
#684 = ORIENTED_EDGE ( 'NONE', *, *, #844, .F. ) ;
#685 = AXIS2_PLACEMENT_3D ( 'NONE', #377, #454, #218 ) ;
#686 = CARTESIAN_POINT ( 'NONE',  ( 2.999999999999999100, -1.350000000000000100, -3.000000000000000400 ) ) ;
#687 = EDGE_CURVE ( 'NONE', #93, #1031, #1082, .T. ) ;
#688 = FACE_OUTER_BOUND ( 'NONE', #761, .T. ) ;
#689 = VECTOR ( 'NONE', #564, 1000.000000000000000 ) ;
#690 = ORIENTED_EDGE ( 'NONE', *, *, #560, .F. ) ;
#691 = VERTEX_POINT ( 'NONE', #604 ) ;
#692 = PLANE ( 'NONE',  #950 ) ;
#693 = ORIENTED_EDGE ( 'NONE', *, *, #547, .F. ) ;
#694 = EDGE_LOOP ( 'NONE', ( #972, #1097, #375, #493 ) ) ;
#695 = ORIENTED_EDGE ( 'NONE', *, *, #775, .F. ) ;
#696 = STYLED_ITEM ( 'NONE', ( #881 ), #561 ) ;
#697 = DIRECTION ( 'NONE',  ( -1.445602896647339200E-016, -0.0000000000000000000, -1.000000000000000000 ) ) ;
#698 = COLOUR_RGB ( '',0.0000000000000000000, 0.0000000000000000000, 0.0000000000000000000 ) ;
#699 = SURFACE_STYLE_USAGE ( .BOTH. , #511 ) ;
#700 = AXIS2_PLACEMENT_3D ( 'NONE', #676, #663, #46 ) ;
#701 = DIRECTION ( 'NONE',  ( -0.0000000000000000000, 0.0000000000000000000, 1.000000000000000000 ) ) ;
#702 = PRESENTATION_STYLE_ASSIGNMENT (( #699 ) ) ;
#703 = VERTEX_POINT ( 'NONE', #985 ) ;
#704 = ORIENTED_EDGE ( 'NONE', *, *, #830, .F. ) ;
#705 = CARTESIAN_POINT ( 'NONE',  ( -2.500000000000000000, -1.350000000000000100, 2.499999999999998200 ) ) ;
#706 = ORIENTED_EDGE ( 'NONE', *, *, #947, .T. ) ;
#707 = ORIENTED_EDGE ( 'NONE', *, *, #59, .T. ) ;
#708 =( NAMED_UNIT ( * ) PLANE_ANGLE_UNIT ( ) SI_UNIT ( $, .RADIAN. ) );
#709 = EDGE_CURVE ( 'NONE', #42, #103, #714, .T. ) ;
#710 = DIRECTION ( 'NONE',  ( 7.885106708985487800E-017, 0.0000000000000000000, 1.000000000000000000 ) ) ;
#711 = FILL_AREA_STYLE ('',( #347 ) ) ;
#712 = CARTESIAN_POINT ( 'NONE',  ( 2.499999999999999600, 1.350000000000000100, 2.499999999999999600 ) ) ;
#713 = CARTESIAN_POINT ( 'NONE',  ( -2.750000000000000900, -1.000000000000000000, -2.750000000000000000 ) ) ;
#714 = LINE ( 'NONE', #196, #914 ) ;
#715 = DIRECTION ( 'NONE',  ( 0.0000000000000000000, 0.0000000000000000000, 1.000000000000000000 ) ) ;
#716 = LINE ( 'NONE', #618, #975 ) ;
#717 = DIRECTION ( 'NONE',  ( -0.0000000000000000000, -1.000000000000000000, -0.0000000000000000000 ) ) ;
#718 = VECTOR ( 'NONE', #853, 1000.000000000000000 ) ;
#719 = AXIS2_PLACEMENT_3D ( 'NONE', #927, #567, #401 ) ;
#720 = EDGE_LOOP ( 'NONE', ( #356, #149, #295, #504 ) ) ;
#721 = ORIENTED_EDGE ( 'NONE', *, *, #621, .F. ) ;
#722 = ORIENTED_EDGE ( 'NONE', *, *, #709, .T. ) ;
#723 = DIRECTION ( 'NONE',  ( 0.0000000000000000000, 0.0000000000000000000, 1.000000000000000000 ) ) ;
#724 = EDGE_CURVE ( 'NONE', #957, #968, #878, .T. ) ;
#725 = PRODUCT_DEFINITION_FORMATION_WITH_SPECIFIED_SOURCE ( 'ANY', '', #120, .NOT_KNOWN. ) ;
#726 = CIRCLE ( 'NONE', #302, 0.5000000000000000000 ) ;
#727 = CIRCLE ( 'NONE', #32, 0.5000000000000000000 ) ;
#728 = DIRECTION ( 'NONE',  ( -1.000000000000000000, 0.0000000000000000000, 0.0000000000000000000 ) ) ;
#729 = DIRECTION ( 'NONE',  ( 0.0000000000000000000, 0.0000000000000000000, 1.000000000000000000 ) ) ;
#730 = CARTESIAN_POINT ( 'NONE',  ( 2.999999999999999100, 1.350000000000000100, -3.000000000000000400 ) ) ;
#731 = CYLINDRICAL_SURFACE ( 'NONE', #142, 0.5000000000000000000 ) ;
#732 = EDGE_CURVE ( 'NONE', #850, #344, #114, .T. ) ;
#733 = ORIENTED_EDGE ( 'NONE', *, *, #230, .T. ) ;
#734 = LINE ( 'NONE', #15, #250 ) ;
#735 = ORIENTED_EDGE ( 'NONE', *, *, #813, .F. ) ;
#736 = AXIS2_PLACEMENT_3D ( 'NONE', #712, #259, #178 ) ;
#737 = ORIENTED_EDGE ( 'NONE', *, *, #49, .T. ) ;
#738 = CARTESIAN_POINT ( 'NONE',  ( -2.500000000000000000, -1.000000000000000000, 2.999999999999998200 ) ) ;
#739 = DIRECTION ( 'NONE',  ( 0.0000000000000000000, 0.0000000000000000000, 1.000000000000000000 ) ) ;
#740 = DIRECTION ( 'NONE',  ( 0.0000000000000000000, 0.0000000000000000000, 1.000000000000000000 ) ) ;
#741 = EDGE_CURVE ( 'NONE', #1012, #790, #5, .T. ) ;
#742 = CARTESIAN_POINT ( 'NONE',  ( -2.750000000000000900, 1.000000000000000000, -2.750000000000000000 ) ) ;
#743 = CARTESIAN_POINT ( 'NONE',  ( 2.499999999999999100, 1.000000000000000000, -2.500000000000000400 ) ) ;
#744 = CARTESIAN_POINT ( 'NONE',  ( 2.999999999999999600, -1.000000000000000000, 2.499999999999999100 ) ) ;
#745 = FACE_OUTER_BOUND ( 'NONE', #359, .T. ) ;
#746 = ADVANCED_FACE ( 'NONE', ( #221, #787 ), #521, .F. ) ;
#747 = LINE ( 'NONE', #752, #551 ) ;
#748 = VERTEX_POINT ( 'NONE', #966 ) ;
#749 = LINE ( 'NONE', #398, #1030 ) ;
#750 = ORIENTED_EDGE ( 'NONE', *, *, #1004, .T. ) ;
#751 = ORIENTED_EDGE ( 'NONE', *, *, #1103, .F. ) ;
#752 = CARTESIAN_POINT ( 'NONE',  ( -3.000000000000000900, -1.350000000000000100, -3.000000000000000400 ) ) ;
#753 = ADVANCED_FACE ( 'NONE', ( #930 ), #166, .T. ) ;
#754 = PLANE ( 'NONE',  #940 ) ;
#755 = CARTESIAN_POINT ( 'NONE',  ( -3.000000000000000900, -1.350000000000000100, -3.000000000000000400 ) ) ;
#756 = DIRECTION ( 'NONE',  ( -0.0000000000000000000, 0.0000000000000000000, 1.000000000000000000 ) ) ;
#757 =( NAMED_UNIT ( * ) PLANE_ANGLE_UNIT ( ) SI_UNIT ( $, .RADIAN. ) );
#758 = AXIS2_PLACEMENT_3D ( 'NONE', #164, #1119, #516 ) ;
#759 = DIRECTION ( 'NONE',  ( -1.000000000000000000, -0.0000000000000000000, -0.0000000000000000000 ) ) ;
#760 = LINE ( 'NONE', #533, #625 ) ;
#761 = EDGE_LOOP ( 'NONE', ( #197, #479, #599, #795 ) ) ;
#762 = VERTEX_POINT ( 'NONE', #4 ) ;
#763 = ORIENTED_EDGE ( 'NONE', *, *, #1024, .F. ) ;
#764 = AXIS2_PLACEMENT_3D ( 'NONE', #1010, #577, #212 ) ;
#765 = ORIENTED_EDGE ( 'NONE', *, *, #1062, .T. ) ;
#766 =( NAMED_UNIT ( * ) SI_UNIT ( $, .STERADIAN. ) SOLID_ANGLE_UNIT ( ) );
#767 = VECTOR ( 'NONE', #335, 1000.000000000000000 ) ;
#768 = LINE ( 'NONE', #742, #1100 ) ;
#769 = CARTESIAN_POINT ( 'NONE',  ( -2.500000000000000900, -1.350000000000000100, -2.500000000000000400 ) ) ;
#770 = EDGE_LOOP ( 'NONE', ( #555, #632, #458, #648 ) ) ;
#771 = LINE ( 'NONE', #656, #274 ) ;
#772 = ORIENTED_EDGE ( 'NONE', *, *, #49, .F. ) ;
#773 = EDGE_LOOP ( 'NONE', ( #81, #198, #977, #313 ) ) ;
#774 = VERTEX_POINT ( 'NONE', #433 ) ;
#775 = EDGE_CURVE ( 'NONE', #595, #556, #1049, .T. ) ;
#776 = CARTESIAN_POINT ( 'NONE',  ( -3.000000000000000900, -1.000000000000000000, -3.000000000000000400 ) ) ;
#777 = VECTOR ( 'NONE', #907, 1000.000000000000000 ) ;
#778 = FACE_OUTER_BOUND ( 'NONE', #943, .T. ) ;
#779 = VECTOR ( 'NONE', #126, 1000.000000000000000 ) ;
#780 = ORIENTED_EDGE ( 'NONE', *, *, #351, .F. ) ;
#781 = CARTESIAN_POINT ( 'NONE',  ( 2.499999999999999600, -1.350000000000000100, 2.499999999999999600 ) ) ;
#782 = UNCERTAINTY_MEASURE_WITH_UNIT (LENGTH_MEASURE( 1.000000000000000100E-005 ), #959, 'distance_accuracy_value', 'NONE');
#783 = ORIENTED_EDGE ( 'NONE', *, *, #945, .T. ) ;
#784 = SURFACE_STYLE_USAGE ( .BOTH. , #598 ) ;
#785 = AXIS2_PLACEMENT_3D ( 'NONE', #645, #475, #831 ) ;
#786 = CIRCLE ( 'NONE', #419, 0.5000000000000000000 ) ;
#787 = FACE_BOUND ( 'NONE', #237, .T. ) ;
#788 = EDGE_CURVE ( 'NONE', #53, #42, #856, .T. ) ;
#789 = LINE ( 'NONE', #622, #1051 ) ;
#790 = VERTEX_POINT ( 'NONE', #812 ) ;
#791 = DIRECTION ( 'NONE',  ( 0.0000000000000000000, 1.000000000000000000, 0.0000000000000000000 ) ) ;
#792 = ORIENTED_EDGE ( 'NONE', *, *, #947, .F. ) ;
#793 = VERTEX_POINT ( 'NONE', #890 ) ;
#794 = PLANE ( 'NONE',  #897 ) ;
#795 = ORIENTED_EDGE ( 'NONE', *, *, #399, .F. ) ;
#796 = ORIENTED_EDGE ( 'NONE', *, *, #29, .F. ) ;
#797 = CARTESIAN_POINT ( 'NONE',  ( 2.999999999999999100, 1.350000000000000100, -2.500000000000000400 ) ) ;
#798 = DIRECTION ( 'NONE',  ( 0.0000000000000000000, 0.0000000000000000000, 1.000000000000000000 ) ) ;
#799 = DIRECTION ( 'NONE',  ( 1.445602896647339200E-016, 0.0000000000000000000, 1.000000000000000000 ) ) ;
#800 = DIRECTION ( 'NONE',  ( -0.0000000000000000000, 1.000000000000000000, 0.0000000000000000000 ) ) ;
#801 = CARTESIAN_POINT ( 'NONE',  ( -3.000000000000000000, -1.000000000000000000, 2.499999999999998200 ) ) ;
#802 = LINE ( 'NONE', #619, #402 ) ;
#803 = DIRECTION ( 'NONE',  ( 0.0000000000000000000, 0.0000000000000000000, 1.000000000000000000 ) ) ;
#804 = DIRECTION ( 'NONE',  ( -0.0000000000000000000, 0.0000000000000000000, 1.000000000000000000 ) ) ;
#805 = LINE ( 'NONE', #1017, #779 ) ;
#806 = AXIS2_PLACEMENT_3D ( 'NONE', #23, #657, #1059 ) ;
#807 = EDGE_LOOP ( 'NONE', ( #233, #690, #235, #118 ) ) ;
#808 = VECTOR ( 'NONE', #463, 1000.000000000000000 ) ;
#809 = ORIENTED_EDGE ( 'NONE', *, *, #466, .T. ) ;
#810 = CARTESIAN_POINT ( 'NONE',  ( 2.499999999999999600, -1.350000000000000100, 2.499999999999999600 ) ) ;
#811 = CARTESIAN_POINT ( 'NONE',  ( -2.500000000000000900, -1.000000000000000000, -2.500000000000000400 ) ) ;
#812 = CARTESIAN_POINT ( 'NONE',  ( 1.824903881562534000, -1.050000000000000000, 3.256524563752805100 ) ) ;
#813 = EDGE_CURVE ( 'NONE', #556, #41, #952, .T. ) ;
#814 = DIRECTION ( 'NONE',  ( -0.0000000000000000000, -1.000000000000000000, -0.0000000000000000000 ) ) ;
#815 = ADVANCED_FACE ( 'NONE', ( #644 ), #543, .T. ) ;
#816 = CARTESIAN_POINT ( 'NONE',  ( -3.000000000000000900, -1.350000000000000100, -3.000000000000000400 ) ) ;
#817 = CIRCLE ( 'NONE', #758, 0.5000000000000000000 ) ;
#818 = VECTOR ( 'NONE', #366, 1000.000000000000000 ) ;
#819 = DIRECTION ( 'NONE',  ( 7.885106708985487800E-017, 0.0000000000000000000, 1.000000000000000000 ) ) ;
#820 = ORIENTED_EDGE ( 'NONE', *, *, #1076, .F. ) ;
#821 = CARTESIAN_POINT ( 'NONE',  ( 1.824903881562534000, -1.050000000000000000, 3.256524563752805100 ) ) ;
#822 = VERTEX_POINT ( 'NONE', #893 ) ;
#823 = EDGE_LOOP ( 'NONE', ( #655, #921, #528, #721 ) ) ;
#824 = PLANE ( 'NONE',  #1108 ) ;
#825 = ADVANCED_FACE ( 'NONE', ( #489 ), #501, .T. ) ;
#826 = CARTESIAN_POINT ( 'NONE',  ( 2.749999999999999100, 1.000000000000000000, -2.750000000000000000 ) ) ;
#827 = DIRECTION ( 'NONE',  ( 0.0000000000000000000, 0.0000000000000000000, -1.000000000000000000 ) ) ;
#828 = SURFACE_STYLE_USAGE ( .BOTH. , #113 ) ;
#829 = ADVANCED_FACE ( 'NONE', ( #679 ), #532, .T. ) ;
#830 = EDGE_CURVE ( 'NONE', #93, #1118, #473, .T. ) ;
#831 = DIRECTION ( 'NONE',  ( -1.000000000000000000, 0.0000000000000000000, -0.0000000000000000000 ) ) ;
#832 = CARTESIAN_POINT ( 'NONE',  ( -2.500000000000000900, 1.000000000000000000, -3.000000000000000400 ) ) ;
#833 = LINE ( 'NONE', #1077, #846 ) ;
#834 = ADVANCED_FACE ( 'NONE', ( #22 ), #917, .F. ) ;
#835 = CYLINDRICAL_SURFACE ( 'NONE', #719, 0.5000000000000000000 ) ;
#836 = ORIENTED_EDGE ( 'NONE', *, *, #894, .F. ) ;
#837 = VECTOR ( 'NONE', #185, 1000.000000000000000 ) ;
#838 = EDGE_CURVE ( 'NONE', #1031, #515, #847, .T. ) ;
#839 = AXIS2_PLACEMENT_3D ( 'NONE', #439, #179, #798 ) ;
#840 = ORIENTED_EDGE ( 'NONE', *, *, #70, .F. ) ;
#841 = MANIFOLD_SOLID_BREP ( 'Boss-Extrude2', #634 ) ;
#842 = ADVANCED_FACE ( 'NONE', ( #549 ), #754, .T. ) ;
#843 = CARTESIAN_POINT ( 'NONE',  ( 2.499999999999998700, -1.350000000000000100, -3.000000000000000400 ) ) ;
#844 = EDGE_CURVE ( 'NONE', #790, #1031, #112, .T. ) ;
#845 = STYLED_ITEM ( 'NONE', ( #626 ), #364 ) ;
#846 = VECTOR ( 'NONE', #1065, 1000.000000000000000 ) ;
#847 = LINE ( 'NONE', #1087, #180 ) ;
#848 = VERTEX_POINT ( 'NONE', #34 ) ;
#849 = EDGE_LOOP ( 'NONE', ( #861, #381, #669, #588 ) ) ;
#850 = VERTEX_POINT ( 'NONE', #300 ) ;
#851 = EDGE_CURVE ( 'NONE', #426, #595, #1020, .T. ) ;
#852 = ORIENTED_EDGE ( 'NONE', *, *, #639, .T. ) ;
#853 = DIRECTION ( 'NONE',  ( 0.0000000000000000000, -1.000000000000000000, 0.0000000000000000000 ) ) ;
#854 = PRODUCT_DEFINITION_CONTEXT ( 'detailed design', #43, 'design' ) ;
#855 = PRESENTATION_LAYER_ASSIGNMENT (  '', '', ( #400 ) ) ;
#856 = LINE ( 'NONE', #1045, #193 ) ;
#857 = LINE ( 'NONE', #449, #390 ) ;
#858 = CARTESIAN_POINT ( 'NONE',  ( 1.824903881562534000, -1.050000000000000000, -3.256524563752805100 ) ) ;
#859 = VECTOR ( 'NONE', #931, 1000.000000000000000 ) ;
#860 = EDGE_LOOP ( 'NONE', ( #342, #780, #1085, #332 ) ) ;
#861 = ORIENTED_EDGE ( 'NONE', *, *, #579, .F. ) ;
#862 =( LENGTH_UNIT ( ) NAMED_UNIT ( * ) SI_UNIT ( .MILLI., .METRE. ) );
#863 = CARTESIAN_POINT ( 'NONE',  ( 1.824903881562534000, -1.050000000000000000, 3.256524563752805100 ) ) ;
#864 = CARTESIAN_POINT ( 'NONE',  ( 2.499999999999999600, -1.000000000000000000, 2.999999999999999600 ) ) ;
#865 = EDGE_CURVE ( 'NONE', #200, #900, #522, .T. ) ;
#866 = CARTESIAN_POINT ( 'NONE',  ( 2.999999999999999100, -1.350000000000000100, -3.000000000000000400 ) ) ;
#867 = CYLINDRICAL_SURFACE ( 'NONE', #1027, 0.5000000000000000000 ) ;
#868 = SURFACE_SIDE_STYLE ('',( #523 ) ) ;
#869 = VECTOR ( 'NONE', #1092, 1000.000000000000000 ) ;
#870 = ORIENTED_EDGE ( 'NONE', *, *, #238, .F. ) ;
#871 =( LENGTH_UNIT ( ) NAMED_UNIT ( * ) SI_UNIT ( .MILLI., .METRE. ) );
#872 = EDGE_LOOP ( 'NONE', ( #445, #997, #276, #55 ) ) ;
#873 = VERTEX_POINT ( 'NONE', #801 ) ;
#874 = EDGE_CURVE ( 'NONE', #222, #774, #929, .T. ) ;
#875 = PRESENTATION_LAYER_ASSIGNMENT (  '', '', ( #468 ) ) ;
#876 = CARTESIAN_POINT ( 'NONE',  ( -3.000000000000000900, -1.350000000000000100, -3.000000000000000400 ) ) ;
#877 = UNCERTAINTY_MEASURE_WITH_UNIT (LENGTH_MEASURE( 1.000000000000000100E-005 ), #871, 'distance_accuracy_value', 'NONE');
#878 = LINE ( 'NONE', #509, #258 ) ;
#879 = DIRECTION ( 'NONE',  ( 1.000000000000000000, 0.0000000000000000000, 0.0000000000000000000 ) ) ;
#880 = EDGE_CURVE ( 'NONE', #556, #121, #548, .T. ) ;
#881 = PRESENTATION_STYLE_ASSIGNMENT (( #467 ) ) ;
#882 = LINE ( 'NONE', #231, #74 ) ;
#883 = DIRECTION ( 'NONE',  ( -0.0000000000000000000, -1.000000000000000000, -0.0000000000000000000 ) ) ;
#884 = EDGE_LOOP ( 'NONE', ( #628, #379, #173, #783 ) ) ;
#885 = ORIENTED_EDGE ( 'NONE', *, *, #351, .T. ) ;
#886 = ORIENTED_EDGE ( 'NONE', *, *, #1081, .F. ) ;
#887 = EDGE_CURVE ( 'NONE', #170, #957, #352, .T. ) ;
#888 = CARTESIAN_POINT ( 'NONE',  ( -3.000000000000000900, -1.000000000000000000, -2.500000000000000400 ) ) ;
#889 = DIRECTION ( 'NONE',  ( 0.0000000000000000000, 0.0000000000000000000, 1.000000000000000000 ) ) ;
#890 = CARTESIAN_POINT ( 'NONE',  ( 2.749999999999999100, 1.000000000000000000, -2.750000000000000000 ) ) ;
#891 = CARTESIAN_POINT ( 'NONE',  ( -1.824903881562534000, -1.050000000000000000, 3.256524563752805100 ) ) ;
#892 = CARTESIAN_POINT ( 'NONE',  ( -2.750000000000000900, 1.000000000000000000, -2.750000000000000000 ) ) ;
#893 = CARTESIAN_POINT ( 'NONE',  ( 2.999999999999999100, 1.000000000000000000, -2.500000000000000400 ) ) ;
#894 = EDGE_CURVE ( 'NONE', #873, #512, #316, .T. ) ;
#895 = CARTESIAN_POINT ( 'NONE',  ( 2.499999999999999100, -1.350000000000000100, -2.500000000000000400 ) ) ;
#896 = LINE ( 'NONE', #1090, #444 ) ;
#897 = AXIS2_PLACEMENT_3D ( 'NONE', #891, #804, #434 ) ;
#898 = DIRECTION ( 'NONE',  ( 7.885106708985487800E-017, 0.0000000000000000000, 1.000000000000000000 ) ) ;
#899 = ADVANCED_FACE ( 'NONE', ( #951 ), #239, .T. ) ;
#900 = VERTEX_POINT ( 'NONE', #948 ) ;
#901 = VERTEX_POINT ( 'NONE', #153 ) ;
#902 = ORIENTED_EDGE ( 'NONE', *, *, #484, .T. ) ;
#903 = CARTESIAN_POINT ( 'NONE',  ( 1.824903881562534000, -1.050000000000000000, 3.256524563752805100 ) ) ;
#904 = VERTEX_POINT ( 'NONE', #858 ) ;
#905 = CARTESIAN_POINT ( 'NONE',  ( 2.499999999999998700, -1.000000000000000000, -3.000000000000000400 ) ) ;
#906 = DIRECTION ( 'NONE',  ( 0.0000000000000000000, 0.0000000000000000000, 1.000000000000000000 ) ) ;
#907 = DIRECTION ( 'NONE',  ( 0.0000000000000000000, 1.000000000000000000, 0.0000000000000000000 ) ) ;
#908 = EDGE_CURVE ( 'NONE', #526, #850, #21, .T. ) ;
#909 = DIRECTION ( 'NONE',  ( 0.0000000000000000000, 1.000000000000000000, -0.0000000000000000000 ) ) ;
#910 = DIRECTION ( 'NONE',  ( 0.0000000000000000000, 1.000000000000000000, 0.0000000000000000000 ) ) ;
#911 = CARTESIAN_POINT ( 'NONE',  ( 3.000000000000000000, -1.350000000000000100, 2.499999999999999100 ) ) ;
#912 = DIRECTION ( 'NONE',  ( -0.0000000000000000000, -1.000000000000000000, -0.0000000000000000000 ) ) ;
#913 = ADVANCED_FACE ( 'NONE', ( #131 ), #692, .T. ) ;
#914 = VECTOR ( 'NONE', #697, 1000.000000000000000 ) ;
#915 = CARTESIAN_POINT ( 'NONE',  ( -3.000000000000000900, 1.000000000000000000, -3.000000000000000400 ) ) ;
#916 = FACE_OUTER_BOUND ( 'NONE', #584, .T. ) ;
#917 = PLANE ( 'NONE',  #187 ) ;
#918 = FACE_OUTER_BOUND ( 'NONE', #1053, .T. ) ;
#919 = DIRECTION ( 'NONE',  ( -1.000000000000000000, -0.0000000000000000000, -0.0000000000000000000 ) ) ;
#920 = ORIENTED_EDGE ( 'NONE', *, *, #775, .T. ) ;
#921 = ORIENTED_EDGE ( 'NONE', *, *, #82, .F. ) ;
#922 = VERTEX_POINT ( 'NONE', #513 ) ;
#923 = DIRECTION ( 'NONE',  ( 1.000000000000000000, 0.0000000000000000000, 0.0000000000000000000 ) ) ;
#924 = ADVANCED_FACE ( 'NONE', ( #745 ), #954, .F. ) ;
#925 = DIRECTION ( 'NONE',  ( 0.0000000000000000000, 0.0000000000000000000, 1.000000000000000000 ) ) ;
#926 = AXIS2_PLACEMENT_3D ( 'NONE', #422, #791, #436 ) ;
#927 = CARTESIAN_POINT ( 'NONE',  ( -2.500000000000000900, -1.350000000000000100, -2.500000000000000400 ) ) ;
#928 = SURFACE_STYLE_FILL_AREA ( #1083 ) ;
#929 = LINE ( 'NONE', #990, #643 ) ;
#930 = FACE_OUTER_BOUND ( 'NONE', #517, .T. ) ;
#931 = DIRECTION ( 'NONE',  ( 1.000000000000000000, -0.0000000000000000000, 0.0000000000000000000 ) ) ;
#932 = ORIENTED_EDGE ( 'NONE', *, *, #102, .F. ) ;
#933 = AXIS2_PLACEMENT_3D ( 'NONE', #111, #104, #642 ) ;
#934 = ORIENTED_EDGE ( 'NONE', *, *, #639, .F. ) ;
#935 = ORIENTED_EDGE ( 'NONE', *, *, #160, .F. ) ;
#936 = PRODUCT_RELATED_PRODUCT_CATEGORY ( 'part', '', ( #120 ) ) ;
#937 =( LENGTH_UNIT ( ) NAMED_UNIT ( * ) SI_UNIT ( .MILLI., .METRE. ) );
#938 = DIRECTION ( 'NONE',  ( 1.445602896647339200E-016, 0.0000000000000000000, 1.000000000000000000 ) ) ;
#939 = EDGE_CURVE ( 'NONE', #263, #998, #964, .T. ) ;
#940 = AXIS2_PLACEMENT_3D ( 'NONE', #370, #740, #380 ) ;
#941 = CARTESIAN_POINT ( 'NONE',  ( 2.499999999999999600, 1.000000000000000000, 2.999999999999999600 ) ) ;
#942 = FACE_BOUND ( 'NONE', #1115, .T. ) ;
#943 = EDGE_LOOP ( 'NONE', ( #682, #684, #1015, #248 ) ) ;
#944 = ORIENTED_EDGE ( 'NONE', *, *, #333, .F. ) ;
#945 = EDGE_CURVE ( 'NONE', #574, #762, #1029, .T. ) ;
#946 = DIRECTION ( 'NONE',  ( 1.445602896647339400E-016, 0.0000000000000000000, 1.000000000000000000 ) ) ;
#947 = EDGE_CURVE ( 'NONE', #901, #119, #569, .T. ) ;
#948 = CARTESIAN_POINT ( 'NONE',  ( -1.824903881562534000, -1.350000000000000100, 2.999999999999999600 ) ) ;
#949 = LINE ( 'NONE', #637, #207 ) ;
#950 = AXIS2_PLACEMENT_3D ( 'NONE', #327, #1032, #946 ) ;
#951 = FACE_OUTER_BOUND ( 'NONE', #291, .T. ) ;
#952 = CIRCLE ( 'NONE', #169, 0.5000000000000000000 ) ;
#953 = CARTESIAN_POINT ( 'NONE',  ( -2.750000000000000900, 1.000000000000000000, -2.750000000000000000 ) ) ;
#954 = PLANE ( 'NONE',  #1013 ) ;
#955 = ORIENTED_EDGE ( 'NONE', *, *, #129, .T. ) ;
#956 = ORIENTED_EDGE ( 'NONE', *, *, #963, .F. ) ;
#957 = VERTEX_POINT ( 'NONE', #175 ) ;
#958 = EDGE_CURVE ( 'NONE', #848, #345, #488, .T. ) ;
#959 =( LENGTH_UNIT ( ) NAMED_UNIT ( * ) SI_UNIT ( .MILLI., .METRE. ) );
#960 = PRESENTATION_LAYER_ASSIGNMENT (  '', '', ( #696 ) ) ;
#961 = SURFACE_STYLE_USAGE ( .BOTH. , #868 ) ;
#962 = DIRECTION ( 'NONE',  ( 0.0000000000000000000, 0.0000000000000000000, 1.000000000000000000 ) ) ;
#963 = EDGE_CURVE ( 'NONE', #93, #1012, #802, .T. ) ;
#964 = LINE ( 'NONE', #420, #423 ) ;
#965 = COLOUR_RGB ( '',0.0000000000000000000, 0.0000000000000000000, 0.0000000000000000000 ) ;
#966 = CARTESIAN_POINT ( 'NONE',  ( 1.824903881562534000, -1.350000000000000100, -3.000000000000000400 ) ) ;
#967 = FACE_OUTER_BOUND ( 'NONE', #1043, .T. ) ;
#968 = VERTEX_POINT ( 'NONE', #1048 ) ;
#969 = FACE_OUTER_BOUND ( 'NONE', #860, .T. ) ;
#970 = EDGE_LOOP ( 'NONE', ( #617, #429, #156, #418 ) ) ;
#971 = EDGE_LOOP ( 'NONE', ( #693, #980, #984, #428, #552, #296, #527, #57, #704, #1116, #409, #95, #1041, #194, #944, #1095 ) ) ;
#972 = ORIENTED_EDGE ( 'NONE', *, *, #150, .F. ) ;
#973 = CARTESIAN_POINT ( 'NONE',  ( -1.824903881562534000, -1.350000000000000100, 3.256524563752805100 ) ) ;
#974 = PLANE ( 'NONE',  #361 ) ;
#975 = VECTOR ( 'NONE', #879, 1000.000000000000000 ) ;
#976 = DIRECTION ( 'NONE',  ( -0.0000000000000000000, -0.0000000000000000000, 1.000000000000000000 ) ) ;
#977 = ORIENTED_EDGE ( 'NONE', *, *, #466, .F. ) ;
#978 = VERTEX_POINT ( 'NONE', #363 ) ;
#979 = SURFACE_SIDE_STYLE ('',( #133 ) ) ;
#980 = ORIENTED_EDGE ( 'NONE', *, *, #292, .T. ) ;
#981 = CARTESIAN_POINT ( 'NONE',  ( 2.499999999999999600, 1.350000000000000100, 2.999999999999999600 ) ) ;
#982 = ORIENTED_EDGE ( 'NONE', *, *, #813, .T. ) ;
#983 = CARTESIAN_POINT ( 'NONE',  ( 1.824903881562534000, -1.350000000000000100, -3.256524563752805100 ) ) ;
#984 = ORIENTED_EDGE ( 'NONE', *, *, #160, .T. ) ;
#985 = CARTESIAN_POINT ( 'NONE',  ( 1.824903881562534000, -1.050000000000000000, -3.000000000000000400 ) ) ;
#986 = STYLED_ITEM ( 'NONE', ( #189 ), #578 ) ;
#987 = PLANE ( 'NONE',  #806 ) ;
#988 = CARTESIAN_POINT ( 'NONE',  ( 0.0000000000000000000, 0.0000000000000000000, 0.0000000000000000000 ) ) ;
#989 = VECTOR ( 'NONE', #923, 1000.000000000000000 ) ;
#990 = CARTESIAN_POINT ( 'NONE',  ( 2.499999999999998700, -1.350000000000000100, -3.000000000000000400 ) ) ;
#991 = EDGE_CURVE ( 'NONE', #515, #900, #98, .T. ) ;
#992 = PRESENTATION_STYLE_ASSIGNMENT (( #828 ) ) ;
#993 = DIRECTION ( 'NONE',  ( -0.0000000000000000000, -1.000000000000000000, -0.0000000000000000000 ) ) ;
#994 = CIRCLE ( 'NONE', #491, 0.5000000000000000000 ) ;
#995 = AXIS2_PLACEMENT_3D ( 'NONE', #1035, #606, #520 ) ;
#996 = CARTESIAN_POINT ( 'NONE',  ( -1.824903881562534000, -1.050000000000000000, -3.256524563752805100 ) ) ;
#997 = ORIENTED_EDGE ( 'NONE', *, *, #89, .T. ) ;
#998 = VERTEX_POINT ( 'NONE', #981 ) ;
#999 = VERTEX_POINT ( 'NONE', #471 ) ;
#1000 = CARTESIAN_POINT ( 'NONE',  ( -2.500000000000000900, -1.350000000000000100, -3.000000000000000400 ) ) ;
#1001 = ORIENTED_EDGE ( 'NONE', *, *, #880, .T. ) ;
#1002 = CARTESIAN_POINT ( 'NONE',  ( -1.824903881562534000, -1.050000000000000000, -3.000000000000000400 ) ) ;
#1003 = DIRECTION ( 'NONE',  ( -1.000000000000000000, 0.0000000000000000000, -0.0000000000000000000 ) ) ;
#1004 = EDGE_CURVE ( 'NONE', #774, #822, #786, .T. ) ;
#1005 = ADVANCED_FACE ( 'NONE', ( #534 ), #867, .T. ) ;
#1006 = DIRECTION ( 'NONE',  ( -0.0000000000000000000, -1.000000000000000000, -0.0000000000000000000 ) ) ;
#1007 = FILL_AREA_STYLE ('',( #627 ) ) ;
#1008 = VECTOR ( 'NONE', #117, 1000.000000000000000 ) ;
#1009 = VECTOR ( 'NONE', #827, 1000.000000000000000 ) ;
#1010 = CARTESIAN_POINT ( 'NONE',  ( 0.0000000000000000000, -1.050000000000000000, 0.0000000000000000000 ) ) ;
#1011 = EDGE_CURVE ( 'NONE', #691, #119, #833, .T. ) ;
#1012 = VERTEX_POINT ( 'NONE', #476 ) ;
#1013 = AXIS2_PLACEMENT_3D ( 'NONE', #80, #701, #518 ) ;
#1014 = DIRECTION ( 'NONE',  ( 1.000000000000000000, 0.0000000000000000000, 0.0000000000000000000 ) ) ;
#1015 = ORIENTED_EDGE ( 'NONE', *, *, #253, .T. ) ;
#1016 = SURFACE_SIDE_STYLE ('',( #928 ) ) ;
#1017 = CARTESIAN_POINT ( 'NONE',  ( -2.750000000000000900, 1.000000000000000000, -2.750000000000000000 ) ) ;
#1018 = EDGE_CURVE ( 'NONE', #406, #222, #727, .T. ) ;
#1019 =( GEOMETRIC_REPRESENTATION_CONTEXT ( 3 ) GLOBAL_UNCERTAINTY_ASSIGNED_CONTEXT ( ( #635 ) ) GLOBAL_UNIT_ASSIGNED_CONTEXT ( ( #862, #708, #174 ) ) REPRESENTATION_CONTEXT ( 'NONE', 'WORKASPACE' ) );
#1020 = LINE ( 'NONE', #1000, #777 ) ;
#1021 = VECTOR ( 'NONE', #16, 1000.000000000000000 ) ;
#1022 = ORIENTED_EDGE ( 'NONE', *, *, #670, .T. ) ;
#1023 = ORIENTED_EDGE ( 'NONE', *, *, #600, .F. ) ;
#1024 = EDGE_CURVE ( 'NONE', #703, #748, #607, .T. ) ;
#1025 = EDGE_LOOP ( 'NONE', ( #707, #1068, #902, #272, #809, #1026, #321, #172 ) ) ;
#1026 = ORIENTED_EDGE ( 'NONE', *, *, #474, .T. ) ;
#1027 = AXIS2_PLACEMENT_3D ( 'NONE', #810, #288, #729 ) ;
#1028 = FILL_AREA_STYLE_COLOUR ( '', #698 ) ;
#1029 = LINE ( 'NONE', #12, #190 ) ;
#1030 = VECTOR ( 'NONE', #52, 1000.000000000000000 ) ;
#1031 = VERTEX_POINT ( 'NONE', #1080 ) ;
#1032 = DIRECTION ( 'NONE',  ( -1.000000000000000000, 0.0000000000000000000, 1.445602896647339400E-016 ) ) ;
#1033 = AXIS2_PLACEMENT_3D ( 'NONE', #13, #803, #267 ) ;
#1034 = VERTEX_POINT ( 'NONE', #188 ) ;
#1035 = CARTESIAN_POINT ( 'NONE',  ( -2.500000000000000900, 1.350000000000000100, -2.500000000000000400 ) ) ;
#1036 = DIRECTION ( 'NONE',  ( 0.0000000000000000000, -1.000000000000000000, 0.0000000000000000000 ) ) ;
#1037 = PRESENTATION_STYLE_ASSIGNMENT (( #546 ) ) ;
#1038 = LINE ( 'NONE', #457, #818 ) ;
#1039 = EDGE_LOOP ( 'NONE', ( #750, #955, #1022, #455, #134, #66, #530, #79 ) ) ;
#1040 = FACE_OUTER_BOUND ( 'NONE', #1025, .T. ) ;
#1041 = ORIENTED_EDGE ( 'NONE', *, *, #865, .F. ) ;
#1042 = EDGE_LOOP ( 'NONE', ( #956, #1098, #852, #733, #614, #393, #213, #224 ) ) ;
#1043 = EDGE_LOOP ( 'NONE', ( #763, #214, #514, #651, #1071, #920, #1001, #331 ) ) ;
#1044 = AXIS2_PLACEMENT_3D ( 'NONE', #266, #348, #96 ) ;
#1045 = CARTESIAN_POINT ( 'NONE',  ( 3.000000000000000000, -1.350000000000000100, 2.499999999999999100 ) ) ;
#1046 = CARTESIAN_POINT ( 'NONE',  ( -3.000000000000000900, 1.350000000000000100, -3.000000000000000400 ) ) ;
#1047 = EDGE_CURVE ( 'NONE', #263, #320, #244, .T. ) ;
#1048 = CARTESIAN_POINT ( 'NONE',  ( 2.749999999999999100, -1.000000000000000000, -2.750000000000000000 ) ) ;
#1049 = LINE ( 'NONE', #1050, #414 ) ;
#1050 = CARTESIAN_POINT ( 'NONE',  ( -3.000000000000000900, -1.000000000000000000, -3.000000000000000400 ) ) ;
#1051 = VECTOR ( 'NONE', #728, 1000.000000000000000 ) ;
#1052 = VECTOR ( 'NONE', #1088, 1000.000000000000000 ) ;
#1053 = EDGE_LOOP ( 'NONE', ( #462, #159, #101, #498 ) ) ;
#1054 = CARTESIAN_POINT ( 'NONE',  ( 2.499999999999999100, -1.000000000000000000, -2.500000000000000400 ) ) ;
#1055 = EDGE_CURVE ( 'NONE', #574, #904, #949, .T. ) ;
#1056 = CARTESIAN_POINT ( 'NONE',  ( -2.500000000000000900, 1.000000000000000000, -2.500000000000000400 ) ) ;
#1057 = PRODUCT_DEFINITION ( 'UNKNOWN', '', #725, #854 ) ;
#1058 = CARTESIAN_POINT ( 'NONE',  ( -1.824903881562534000, -1.050000000000000000, 2.999999999999999600 ) ) ;
#1059 = DIRECTION ( 'NONE',  ( 0.0000000000000000000, 0.0000000000000000000, -1.000000000000000000 ) ) ;
#1060 = DIRECTION ( 'NONE',  ( -0.0000000000000000000, -1.000000000000000000, -0.0000000000000000000 ) ) ;
#1061 = ADVANCED_FACE ( 'NONE', ( #387 ), #824, .T. ) ;
#1062 = EDGE_CURVE ( 'NONE', #170, #793, #367, .T. ) ;
#1063 = LINE ( 'NONE', #281, #152 ) ;
#1064 = VECTOR ( 'NONE', #44, 1000.000000000000000 ) ;
#1065 = DIRECTION ( 'NONE',  ( 0.0000000000000000000, -1.000000000000000000, 0.0000000000000000000 ) ) ;
#1066 = DIRECTION ( 'NONE',  ( 1.445602896647339400E-016, -0.0000000000000000000, 1.000000000000000000 ) ) ;
#1067 = VECTOR ( 'NONE', #30, 1000.000000000000000 ) ;
#1068 = ORIENTED_EDGE ( 'NONE', *, *, #908, .T. ) ;
#1069 = CIRCLE ( 'NONE', #933, 0.5000000000000000000 ) ;
#1070 = DIRECTION ( 'NONE',  ( 0.0000000000000000000, 0.0000000000000000000, 1.000000000000000000 ) ) ;
#1071 = ORIENTED_EDGE ( 'NONE', *, *, #851, .T. ) ;
#1072 = ORIENTED_EDGE ( 'NONE', *, *, #887, .F. ) ;
#1073 = CARTESIAN_POINT ( 'NONE',  ( 2.499999999999999600, -1.350000000000000100, 2.999999999999999600 ) ) ;
#1074 = CARTESIAN_POINT ( 'NONE',  ( -2.500000000000000000, -1.000000000000000000, 2.499999999999998200 ) ) ;
#1075 =( LENGTH_UNIT ( ) NAMED_UNIT ( * ) SI_UNIT ( .MILLI., .METRE. ) );
#1076 = EDGE_CURVE ( 'NONE', #119, #957, #1063, .T. ) ;
#1077 = CARTESIAN_POINT ( 'NONE',  ( -2.750000000000000400, 1.000000000000000000, 2.750000000000000000 ) ) ;
#1078 = CARTESIAN_POINT ( 'NONE',  ( -1.824903881562534000, -1.050000000000000000, 3.256524563752805100 ) ) ;
#1079 =( LENGTH_UNIT ( ) NAMED_UNIT ( * ) SI_UNIT ( .MILLI., .METRE. ) );
#1080 = CARTESIAN_POINT ( 'NONE',  ( 1.824903881562534000, -1.350000000000000100, 3.256524563752805100 ) ) ;
#1081 = EDGE_CURVE ( 'NONE', #217, #526, #677, .T. ) ;
#1082 = LINE ( 'NONE', #1112, #208 ) ;
#1083 = FILL_AREA_STYLE ('',( #647 ) ) ;
#1084 = SURFACE_STYLE_FILL_AREA ( #336 ) ;
#1085 = ORIENTED_EDGE ( 'NONE', *, *, #253, .F. ) ;
#1086 = LINE ( 'NONE', #383, #54 ) ;
#1087 = CARTESIAN_POINT ( 'NONE',  ( -1.824903881562534000, -1.350000000000000100, 3.256524563752805100 ) ) ;
#1088 = DIRECTION ( 'NONE',  ( 0.0000000000000000000, 1.000000000000000000, -0.0000000000000000000 ) ) ;
#1089 = STYLED_ITEM ( 'NONE', ( #1037 ), #834 ) ;
#1090 = CARTESIAN_POINT ( 'NONE',  ( -1.824903881562534000, -1.050000000000000000, 3.256524563752805100 ) ) ;
#1091 = VECTOR ( 'NONE', #710, 1000.000000000000000 ) ;
#1092 = DIRECTION ( 'NONE',  ( 0.0000000000000000000, 1.000000000000000000, 0.0000000000000000000 ) ) ;
#1093 = AXIS2_PLACEMENT_3D ( 'NONE', #781, #1106, #962 ) ;
#1094 = PLANE ( 'NONE',  #631 ) ;
#1095 = ORIENTED_EDGE ( 'NONE', *, *, #64, .T. ) ;
#1096 = VECTOR ( 'NONE', #550, 1000.000000000000000 ) ;
#1097 = ORIENTED_EDGE ( 'NONE', *, *, #1081, .T. ) ;
#1098 = ORIENTED_EDGE ( 'NONE', *, *, #830, .T. ) ;
#1099 = ORIENTED_EDGE ( 'NONE', *, *, #991, .F. ) ;
#1100 = VECTOR ( 'NONE', #298, 1000.000000000000000 ) ;
#1101 = CARTESIAN_POINT ( 'NONE',  ( -1.824903881562534000, -1.050000000000000000, 3.256524563752805100 ) ) ;
#1102 = VECTOR ( 'NONE', #759, 1000.000000000000000 ) ;
#1103 = EDGE_CURVE ( 'NONE', #1034, #691, #268, .T. ) ;
#1104 = ORIENTED_EDGE ( 'NONE', *, *, #600, .T. ) ;
#1105 = ORIENTED_EDGE ( 'NONE', *, *, #399, .T. ) ;
#1106 = DIRECTION ( 'NONE',  ( -0.0000000000000000000, -1.000000000000000000, -0.0000000000000000000 ) ) ;
#1107 = EDGE_CURVE ( 'NONE', #200, #922, #726, .T. ) ;
#1108 = AXIS2_PLACEMENT_3D ( 'NONE', #996, #469, #1003 ) ;
#1109 = VECTOR ( 'NONE', #898, 1000.000000000000000 ) ;
#1110 = PLANE ( 'NONE',  #216 ) ;
#1111 = CARTESIAN_POINT ( 'NONE',  ( 2.749999999999999600, 1.000000000000000000, 2.750000000000000000 ) ) ;
#1112 = CARTESIAN_POINT ( 'NONE',  ( 1.824903881562534000, -1.350000000000000100, 3.256524563752805100 ) ) ;
#1113 = FACE_OUTER_BOUND ( 'NONE', #264, .T. ) ;
#1114 = EDGE_CURVE ( 'NONE', #320, #405, #413, .T. ) ;
#1115 = EDGE_LOOP ( 'NONE', ( #820, #792, #91, #553 ) ) ;
#1116 = ORIENTED_EDGE ( 'NONE', *, *, #687, .T. ) ;
#1117 = STYLED_ITEM ( 'NONE', ( #624 ), #746 ) ;
#1118 = VERTEX_POINT ( 'NONE', #1073 ) ;
#1119 = DIRECTION ( 'NONE',  ( -0.0000000000000000000, -1.000000000000000000, -0.0000000000000000000 ) ) ;
#1120 =( NAMED_UNIT ( * ) PLANE_ANGLE_UNIT ( ) SI_UNIT ( $, .RADIAN. ) );
ENDSEC;
END-ISO-10303-21;
